<svg width="187" height="140" viewBox="0 0 187 140" fill="none" xmlns="http://www.w3.org/2000/svg">
<path d="M91.8836 134.781L8.43006 85.4592C5.77381 83.9685 3.49371 81.5166 6.08495 79.9145L89.845 31.6191C91.1035 30.8389 93.0121 30.3281 94.2891 31.0711L181.89 81.9345C184.546 83.4763 185.024 87.7857 182.354 89.3321L102.885 134.707C101.216 135.674 99.3232 136.19 97.394 136.203C95.4649 136.216 93.5656 135.726 91.8836 134.781Z" fill="#CCA8FF"/>
<path d="M46.2352 80.4485L26.643 91.7562L18.9111 87.1077L32.6474 78.5771L46.2352 80.4485Z" fill="url(#paint0_linear_3_657)"/>
<path d="M79.0714 62.2681L73.6335 65.1147L69.0362 62.008L74.1443 59.1614C74.1443 59.1614 68.9665 57.7357 65.0797 60.1319C61.1928 62.5281 62.4234 64.1442 61.3878 65.3098C60.3523 66.4754 32.2527 80.7829 32.2527 80.7829C31.9288 81.03 31.6329 81.3118 31.3704 81.6234L30.5763 80.7829V83.1791C30.5391 83.4004 30.5391 83.6264 30.5763 83.8478V83.8896C30.6824 84.3774 30.9372 84.8203 31.3054 85.1573C33.5901 87.4142 36.6504 85.8353 40.593 83.6945C44.5355 81.5538 62.9946 71.2631 62.9946 71.2631C62.9946 71.2631 66.0363 69.192 67.917 69.257C69.468 69.3127 77.7479 69.7214 79.1782 65.542V62.7093C79.1596 62.5699 79.1225 62.4167 79.0714 62.2681Z" fill="#399419"/>
<path opacity="0.33" d="M79.0714 62.2681L73.6335 65.1147L69.0362 62.008L74.1443 59.1614C74.1443 59.1614 68.9665 57.7357 65.0797 60.1319C61.1928 62.5281 62.4234 64.1442 61.3878 65.3098C60.3523 66.4754 32.2527 80.7829 32.2527 80.7829C31.9288 81.03 31.6329 81.3118 31.3704 81.6234L30.5763 80.7829V83.1791C30.5391 83.4004 30.5391 83.6264 30.5763 83.8478V83.8896C30.6824 84.3774 30.9372 84.8203 31.3054 85.1573C33.5901 87.4142 36.6504 85.8353 40.593 83.6945C44.5355 81.5538 62.9946 71.2631 62.9946 71.2631C62.9946 71.2631 66.0363 69.192 67.917 69.257C69.468 69.3127 77.7479 69.7214 79.1782 65.542V62.7093C79.1596 62.5699 79.1225 62.4167 79.0714 62.2681Z" fill="#3F3D56"/>
<path d="M73.9307 57.2667V60.0484L69.5284 62.4446L67.0022 59.8533L73.9307 57.2667Z" fill="#399419"/>
<path opacity="0.33" d="M73.9307 57.2667V60.0484L69.5284 62.4446L67.0022 59.8533L73.9307 57.2667Z" fill="#3F3D56"/>
<path d="M68.7993 60.1134L73.9075 57.2667C73.9075 57.2667 68.7297 55.8411 64.8428 58.2373C60.956 60.6335 62.1866 62.2495 61.151 63.4151C60.1155 64.5807 32.0159 78.8882 32.0159 78.8882C32.0159 78.8882 29.4246 80.1838 31.0871 82.7101C32.7496 85.2363 36.395 83.9407 40.3468 81.7813C44.2987 79.6219 62.7485 69.3499 62.7485 69.3499C62.7485 69.3499 65.7902 67.2787 67.6709 67.3438C69.5516 67.4088 81.2679 67.9892 78.816 60.3502L73.3781 63.1968L68.7993 60.1134Z" fill="#399419"/>
<path opacity="0.77" d="M34.3842 82.0739C35.3844 82.0739 36.1953 81.4959 36.1953 80.7829C36.1953 80.0699 35.3844 79.4919 34.3842 79.4919C33.384 79.4919 32.5731 80.0699 32.5731 80.7829C32.5731 81.4959 33.384 82.0739 34.3842 82.0739Z" fill="#3F3D56"/>
<path d="M167.401 86.843L156.191 93.3118L148.459 88.6634L159.469 81.8277L167.401 86.843Z" fill="url(#paint1_linear_3_657)"/>
<path d="M153.781 56.4541C154.638 56.3967 155.495 56.5564 156.274 56.9184C157.07 57.3696 157.691 58.0766 158.034 58.9246C158.415 59.7326 158.587 60.8842 159.386 61.4043C159.697 61.571 159.967 61.806 160.175 62.0916C160.369 62.3661 160.494 62.6841 160.536 63.0176C160.579 63.3512 160.54 63.6901 160.421 64.0049C160.068 64.7107 158.592 65.1472 157.914 65.0172" fill="#8FDB5E"/>
<path d="M153.112 56.533C152.111 56.622 151.163 57.0217 150.4 57.6762C149.637 58.3306 149.098 59.2071 148.858 60.183C148.608 61.1676 148.597 62.1978 148.826 63.1876C149.016 63.9863 149.49 65.3655 150.465 65.4259C151.779 65.5095 152.206 64.2742 152.624 63.2665C153.042 62.2588 153.474 61.1443 154.528 60.7449C155.046 60.5503 155.61 60.5117 156.15 60.6338C156.69 60.756 157.182 61.0335 157.565 61.4322L153.112 56.533Z" fill="#1E8C0E"/>
<path d="M159.126 61.8827C158.332 60.8564 157.672 59.7326 156.906 58.6831C156.473 58.001 155.955 57.3768 155.364 56.8256C153.535 55.9386 151.236 56.7513 149.885 58.3069C150.07 58.3627 150.349 58.3766 150.47 58.4277C151.28 58.739 152 59.2483 152.564 59.909C153.372 60.8053 154.004 61.9012 154.719 62.8532C155.88 64.3996 157.421 65.6673 159.418 64.7432C160.686 64.1488 159.688 62.6117 159.126 61.8827Z" fill="#8FDB5E"/>
<path d="M165.581 48.6386C165.581 48.6386 169.7 48.3135 169.621 54.8287C169.542 61.344 163.389 57.0578 164.74 53.1338" fill="#1E8C0E"/>
<path d="M164.986 55.0702C164.94 53.0873 167.169 51.6385 169.05 51.383C168.752 50.2453 167.596 48.4157 165.334 48.4714C162.516 48.5457 160.398 51.4109 159.924 54.7869C159.451 58.163 162 60.3038 162 60.3038L163.361 61.4647C165.855 60.4849 164.926 56.8766 164.986 55.0702Z" fill="#8FDB5E"/>
<path d="M176.206 59.7326C176.146 58.4984 175.821 57.2915 175.254 56.194C174.992 55.6685 174.615 55.2089 174.151 54.8495C173.687 54.49 173.148 54.2401 172.574 54.1182L170.252 58.5856C170.252 58.5856 173.707 52.5486 172.3 57.1924C170.893 61.8362 175.551 67.0698 176.178 60.1273C176.192 59.9926 176.196 59.8626 176.206 59.7326Z" fill="#1E8C0E"/>
<path d="M159.818 71.3606C159.818 71.3606 156.716 73.376 157.579 78.0988C157.889 79.7342 158.356 81.336 158.972 82.8819C159.572 84.4143 160.013 86.3972 161.564 87.2656C163.003 88.0736 165.237 88.2176 166.672 87.3306C168 86.518 168.474 84.6744 168.966 83.3045C169.547 81.6166 169.945 79.8715 170.155 78.0988C171.608 66.6936 159.818 71.3606 159.818 71.3606Z" fill="#399419"/>
<path d="M163.988 73.6872C166.486 73.6872 168.511 72.9553 168.511 72.0526C168.511 71.1498 166.486 70.4179 163.988 70.4179C161.49 70.4179 159.465 71.1498 159.465 72.0526C159.465 72.9553 161.49 73.6872 163.988 73.6872Z" fill="#34323D"/>
<path d="M164.355 63.3408C163.723 61.8176 162.544 60.5545 162.172 58.9013C161.94 57.7942 162.036 56.6432 162.448 55.5898C162.86 54.5363 163.572 53.6262 164.494 52.9712C164.838 52.7205 164.494 52.14 164.155 52.3954C161.262 54.4944 160.705 58.0794 162.39 61.135C162.91 62.0638 163.598 62.9925 163.913 64.0327C164.331 65.3934 163.867 66.3546 163.226 67.3948C163.262 66.3857 162.902 65.4026 162.223 64.655C161.471 63.9584 160.366 63.8423 159.437 63.5266C157.635 62.9182 156.052 61.8873 155.745 59.8812C155.68 59.4586 155.035 59.6351 155.1 60.0576C155.35 61.7015 156.428 62.8718 157.886 63.6194C158.757 63.9943 159.654 64.3047 160.57 64.5482C160.967 64.7006 161.328 64.9325 161.633 65.2295C161.937 65.5265 162.177 65.8825 162.339 66.2757C162.766 67.2602 162.479 67.9335 162.237 68.8901C161.926 70.13 161.434 71.212 162.284 72.3637C162.534 72.7073 163.115 72.3637 162.859 72.0247C161.503 70.1672 163.667 68.3793 164.401 66.7726C164.64 66.2306 164.759 65.6437 164.751 65.0516C164.743 64.4596 164.608 63.8761 164.355 63.3408Z" fill="#1E8C0E"/>
<path d="M172.695 59.2403C169.839 58.7388 167.893 60.9492 168.051 63.7169C168.111 64.4107 168.24 65.0967 168.437 65.7649C168.567 66.2292 168.901 67.0651 168.813 67.5434C168.716 67.9703 168.516 68.3671 168.231 68.6997C167.946 69.0322 167.585 69.2904 167.178 69.452C165.938 70.0372 165.139 70.743 164.768 72.099C164.745 72.1846 164.756 72.276 164.8 72.353C164.844 72.4301 164.917 72.4866 165.002 72.51C165.088 72.5334 165.179 72.5218 165.257 72.4778C165.334 72.4338 165.39 72.361 165.413 72.2755C166.073 69.856 169.458 70.2043 169.481 67.5388C169.481 66.2385 168.803 65.0126 168.72 63.7123C168.581 61.4322 170.067 59.4493 172.509 59.8812C172.941 59.9601 173.122 59.3193 172.695 59.2403Z" fill="#1E8C0E"/>
<path d="M175.254 56.194C174.148 54.1507 172.133 53.6724 170.145 54.2808C169.872 54.3911 169.607 54.5199 169.351 54.6662C164.387 58.3441 167.912 66.6425 168.678 66.5822C171.209 66.3732 170.944 64.8872 171.794 60.7264C171.939 59.7873 172.419 58.9326 173.145 58.3204C173.872 57.7082 174.796 57.3801 175.746 57.3968C175.618 56.9821 175.453 56.5796 175.254 56.194Z" fill="#8FDB5E"/>
<path d="M174.162 54.838C173.335 54.7082 172.487 54.8327 171.732 55.1951C170.976 55.5574 170.349 56.1406 169.932 56.8674C168.116 59.9044 168.539 63.4383 168.776 66.7865C168.808 67.2137 169.477 67.2184 169.444 66.7865C169.268 64.3671 168.929 61.9709 169.588 59.5933C169.913 58.4277 170.299 57.1321 171.232 56.2962C171.732 55.8555 172.35 55.5702 173.01 55.4754C173.67 55.3805 174.343 55.4802 174.947 55.7621L174.692 55.4185C174.525 55.2281 174.343 55.0331 174.162 54.838Z" fill="#1E8C0E"/>
<path d="M102.077 72.9163L84.4304 82.8772C84.4304 82.8772 101.394 93.3025 111.104 99.2094L126.508 89.8522" fill="url(#paint2_linear_3_657)"/>
<path d="M107.807 41.0135C107.77 40.8337 107.694 40.6642 107.584 40.5173C107.474 40.3704 107.333 40.2496 107.171 40.1636C107.024 40.0824 106.852 40.0607 106.689 40.1031C106.527 40.1454 106.387 40.2486 106.298 40.3912C106.225 40.5345 106.203 40.6978 106.233 40.8556C106.183 41.0836 106.192 41.3205 106.257 41.5444C106.323 41.7684 106.444 41.9722 106.609 42.1373C106.73 42.2561 106.892 42.3227 107.062 42.3227C107.231 42.3227 107.394 42.2561 107.515 42.1373C107.647 41.9852 107.742 41.8047 107.793 41.6097C107.844 41.4147 107.848 41.2106 107.807 41.0135Z" fill="#5A2500"/>
<path d="M127.743 20.1303L103.428 5.76709C103.072 5.58489 102.682 5.47694 102.283 5.4498C101.884 5.42266 101.484 5.47689 101.106 5.6092H101.069C100.891 5.66903 100.718 5.7452 100.554 5.83674L98.2596 6.84445L99.4902 7.38777L100.247 69.6146C100.247 70.7104 100.534 71.7871 101.08 72.7372C101.626 73.6874 102.412 74.4777 103.358 75.0292L126.025 88.2362L125.672 90.363L128.746 88.7377C129.044 88.5746 129.292 88.334 129.465 88.0413C129.637 87.7487 129.727 87.4149 129.726 87.0752V23.5992C129.726 22.8985 129.543 22.2098 129.195 21.6014C128.847 20.9931 128.347 20.486 127.743 20.1303Z" fill="#399419"/>
<path opacity="0.33" d="M127.743 20.1303L103.428 5.76709C103.072 5.58489 102.682 5.47694 102.283 5.4498C101.884 5.42266 101.484 5.47689 101.106 5.6092H101.069C100.891 5.66903 100.718 5.7452 100.554 5.83674L98.2596 6.84445L99.4902 7.38777L100.247 69.6146C100.247 70.7104 100.534 71.7871 101.08 72.7372C101.626 73.6874 102.412 74.4777 103.358 75.0292L126.025 88.2362L125.672 90.363L128.746 88.7377C129.044 88.5746 129.292 88.334 129.465 88.0413C129.637 87.7487 129.727 87.4149 129.726 87.0752V23.5992C129.726 22.8985 129.543 22.2098 129.195 21.6014C128.847 20.9931 128.347 20.486 127.743 20.1303Z" fill="#3F3D56"/>
<path d="M123.912 90.2748L100.41 76.5803C99.4627 76.0287 98.6771 75.2384 98.1311 74.2883C97.5852 73.3381 97.298 72.2614 97.2983 71.1656V8.36296C97.2972 8.0688 97.3742 7.77962 97.5214 7.52493C97.6686 7.27025 97.8808 7.05919 98.1362 6.91329C98.3917 6.76739 98.6812 6.69189 98.9754 6.69448C99.2695 6.69707 99.5578 6.77766 99.8106 6.92803L124.794 21.7046C125.397 22.0608 125.897 22.5681 126.244 23.1765C126.591 23.7848 126.773 24.4732 126.772 25.1735V88.6309C126.772 88.9654 126.684 89.2938 126.516 89.5832C126.348 89.8726 126.107 90.1127 125.817 90.2794C125.527 90.446 125.198 90.5334 124.864 90.5326C124.529 90.5317 124.201 90.4428 123.912 90.2748Z" fill="#F4F4F4"/>
<path d="M125.282 28.9907L98.5103 13.6383V68.5744L125.282 84.0521V28.9907Z" fill="#399419"/>
<path d="M109.795 80.2142C110.458 80.0558 110.823 79.2013 110.609 78.3058C110.395 77.4102 109.684 76.8127 109.02 76.9711C108.357 77.1296 107.992 77.984 108.206 78.8796C108.42 79.7751 109.131 80.3727 109.795 80.2142Z" fill="#BABABC"/>
<path d="M108.402 16.2806C108.402 16.3862 108.43 16.49 108.483 16.5813C108.536 16.6726 108.612 16.7483 108.703 16.8007L113.877 19.7728C113.968 19.8248 114.071 19.852 114.176 19.8517C114.281 19.8513 114.384 19.8234 114.474 19.7708C114.565 19.7181 114.641 19.6425 114.693 19.5516C114.745 19.4607 114.773 19.3576 114.773 19.2527V19.1273C114.773 19.02 114.744 18.9146 114.689 18.8223C114.634 18.73 114.556 18.6541 114.462 18.6025L109.289 15.7559C109.197 15.7059 109.095 15.6805 108.991 15.6822C108.887 15.6839 108.785 15.7127 108.696 15.7656C108.606 15.8186 108.532 15.8939 108.48 15.9842C108.429 16.0745 108.402 16.1767 108.402 16.2806Z" fill="#CCCCCC"/>
<path d="M106.3 15.4407C106.603 15.3286 106.725 14.9023 106.572 14.4886C106.419 14.0749 106.049 13.8304 105.746 13.9426C105.443 14.0547 105.321 14.4811 105.474 14.8948C105.627 15.3085 105.997 15.5529 106.3 15.4407Z" fill="#CCCCCC"/>
<path opacity="0.33" d="M104.909 47.8538L104.71 47.1479L102.467 45.9266V42.1047C102.467 42.0304 104.635 43.3818 104.635 43.3818L104.738 43.1682C104.859 42.5828 105.082 42.0232 105.397 41.515L103.818 38.5987L105.824 37.0755L107.324 40.0801C107.869 39.9537 108.437 39.9633 108.977 40.1079V37.2334L111.847 38.8262V41.8447C112.411 42.3845 112.924 42.9753 113.38 43.6093L115.112 42.5041L117.067 46.2191L115.521 47.4498L115.651 48.072C115.846 48.7323 116.001 49.4038 116.115 50.0828L118.437 51.3505V55.1399L116.245 53.835C116.149 54.5281 115.907 55.193 115.534 55.7854L117.178 58.5716L115.098 60.1459L113.635 57.276H111.815V60.1459L109.08 58.4788V55.66C108.451 55.044 107.896 54.3567 107.426 53.6121L105.778 54.7359L103.795 50.9605L105.443 49.7438L105.281 49.1726C105.137 48.7222 105.021 48.2856 104.909 47.8538Z" fill="#3F3D56"/>
<path d="M111.616 52.2779C112.791 51.8165 113.1 49.8053 112.306 47.7858C111.513 45.7664 109.917 44.5034 108.743 44.9648C107.569 45.4263 107.26 47.4374 108.053 49.4569C108.847 51.4763 110.442 52.7393 111.616 52.2779Z" fill="#399419"/>
<path d="M76.2294 107.958C76.1447 107.889 76.0563 107.824 75.9647 107.763L91.0896 97.807L102.913 106.686L90.0819 115.885C85.6331 112.918 80.6039 111.042 76.2294 107.958Z" fill="url(#paint3_linear_3_657)"/>
<path d="M99.9824 49.6881C100.072 49.473 100.177 49.265 100.298 49.0658C100.295 49.0764 100.295 49.0876 100.298 49.0983C100.303 49.1133 100.311 49.1267 100.323 49.137C100.335 49.1473 100.35 49.154 100.365 49.1564C100.381 49.1589 100.397 49.1569 100.411 49.1507C100.425 49.1445 100.438 49.1344 100.447 49.1215L100.674 48.7732C100.667 48.8178 100.667 48.8633 100.674 48.9079C100.692 48.9937 100.742 49.0695 100.813 49.1203C100.885 49.1711 100.973 49.1931 101.06 49.1819C101.11 49.1781 101.159 49.1633 101.203 49.1385C101.247 49.1136 101.285 49.0793 101.315 49.0381C101.344 48.9968 101.364 48.9496 101.373 48.8998C101.382 48.85 101.379 48.7989 101.366 48.75L101.473 48.6293C101.467 48.6647 101.467 48.7007 101.473 48.7361C101.488 48.7858 101.516 48.8307 101.554 48.8665C101.592 48.9023 101.638 48.9278 101.688 48.9404C101.739 48.953 101.792 48.9524 101.842 48.9385C101.892 48.9247 101.938 48.8982 101.975 48.8615C102.016 48.829 102.049 48.7872 102.091 48.75C102.123 48.7641 102.158 48.7713 102.193 48.7713C102.228 48.7713 102.263 48.7641 102.295 48.75C102.593 48.6485 102.885 48.5291 103.168 48.3924C103.151 48.3803 103.136 48.3642 103.126 48.3455C103.116 48.3267 103.11 48.3058 103.11 48.2845C103.109 48.2632 103.114 48.2421 103.123 48.2229C103.133 48.2037 103.146 48.187 103.163 48.1742C103.498 47.9038 103.852 47.6586 104.222 47.4405H104.269V47.4033C104.357 47.1215 104.337 46.8169 104.213 46.5489C104.302 46.4403 104.366 46.3128 104.399 46.176C104.432 46.0393 104.433 45.8968 104.403 45.7594C104.374 45.7568 104.347 45.7455 104.324 45.7269C104.271 45.6819 104.226 45.6286 104.19 45.569C104.125 45.487 104.074 45.3943 104.041 45.295C104.034 45.2706 104.034 45.2443 104.042 45.2201C104.051 45.1959 104.066 45.175 104.088 45.1604C103.948 44.9746 103.79 44.8028 103.623 44.6449C103.967 44.053 104.128 43.373 104.088 42.6899C104.088 42.624 104.066 42.5599 104.025 42.5078C103.985 42.4557 103.928 42.4185 103.865 42.402C103.801 42.3856 103.733 42.3907 103.673 42.4168C103.612 42.4428 103.562 42.4882 103.53 42.5459C103.395 42.7612 103.272 42.9845 103.163 43.2146C103.128 43.238 103.099 43.27 103.08 43.3075C102.494 44.5106 101.843 45.681 101.129 46.8135C101.009 47.0039 99.5273 49.0472 99.6945 49.0937C99.7038 49.1726 98.4917 51.9728 99.9824 49.6881ZM100.86 48.8243C100.867 48.8331 100.877 48.8402 100.887 48.845C100.898 48.8499 100.909 48.8524 100.92 48.8524C100.932 48.8524 100.943 48.8499 100.954 48.845C100.964 48.8402 100.973 48.8331 100.981 48.8243C101.017 48.8511 101.059 48.8695 101.103 48.8783C101.147 48.8872 101.193 48.8862 101.236 48.8754C101.233 48.9271 101.208 48.9753 101.169 49.0092C101.13 49.0432 101.079 49.0602 101.027 49.0565C100.976 49.0528 100.927 49.0287 100.893 48.9895C100.859 48.9503 100.842 48.8993 100.846 48.8475L100.86 48.8243Z" fill="#FCBF81"/>
<path d="M100.145 49.0379C100.468 48.7818 100.739 48.4666 100.944 48.1092C100.983 48.0354 101.037 47.9704 101.103 47.9181C101.168 47.8658 101.244 47.8272 101.324 47.8046C101.405 47.7821 101.489 47.776 101.572 47.7869C101.655 47.7977 101.735 47.8252 101.807 47.8677C101.83 47.703 101.84 47.537 101.84 47.3708C101.84 46.5303 103.163 46.5163 103.149 47.3708C103.176 48.0274 103 48.6762 102.643 49.2283C102.247 49.731 101.764 50.1588 101.218 50.4914C101.121 50.5457 101.013 50.5753 100.902 50.5777C100.791 50.58 100.682 50.5551 100.583 50.505C100.485 50.455 100.4 50.3814 100.336 50.2907C100.273 50.2001 100.233 50.0951 100.219 49.9853L100.159 49.9388C100.043 49.8184 99.9766 49.6584 99.974 49.4911C99.9715 49.3239 100.033 49.1618 100.145 49.0379Z" fill="#FCBF81"/>
<path d="M92.8867 52.1818C92.8867 52.1818 96.7085 52.3629 97.7023 51.4481C98.6961 50.5332 100.131 47.6494 100.131 47.6494C100.131 47.6494 102.764 49.3398 102.917 50.315C103.071 51.2902 100.164 55.999 98.8865 56.3147" fill="#399419"/>
<path opacity="0.33" d="M92.8867 52.1818C92.8867 52.1818 96.7085 52.3629 97.7023 51.4481C98.6961 50.5332 100.131 47.6494 100.131 47.6494C100.131 47.6494 102.764 49.3398 102.917 50.315C103.071 51.2902 100.164 55.999 98.8865 56.3147" fill="#3F3D56"/>
<path d="M87.0912 99.3023C87.0912 99.3023 90.3419 97.8674 91.0988 97.807C91.8558 97.7467 93.1746 98.016 92.0276 99.4416C92.0276 99.4416 88.6283 101.666 88.1825 101.736C87.7367 101.805 86.6454 101.466 86.6176 101.582C86.5897 101.699 86.4875 102.558 86.4875 102.558C86.4875 102.558 83.6455 103.64 83.5248 101.74C83.5248 101.494 83.9335 97.9649 83.9335 97.9649" fill="#34323D"/>
<path d="M83.3855 90.976C83.9474 87.326 84.9737 83.7874 85.4055 80.091C85.6749 77.7691 85.8699 75.4472 86.1532 73.1253C86.4365 70.8034 87.3049 68.5558 87.8621 66.2571C87.8768 66.2037 87.8733 66.1469 87.8523 66.0957C87.8313 66.0445 87.7939 66.0016 87.746 65.9738C87.7739 65.8949 87.7971 65.8113 87.8203 65.7324C88.1082 65.4584 88.4008 65.1983 88.6841 64.9522L92.6545 67.627C92.6545 67.627 92.6313 70.0604 92.5059 73.5804C92.0415 75.6329 91.6932 77.4672 91.1731 79.413C91.2297 79.4746 91.2704 79.5491 91.2914 79.6301C91.3125 79.7111 91.3133 79.796 91.2939 79.8773C90.0021 86.0105 89.061 92.2123 88.4751 98.4525C88.4671 98.5556 88.4295 98.6542 88.3669 98.7366C88.3043 98.8189 88.2194 98.8815 88.1222 98.9169L88.0107 99.8781C84.5557 101.211 83.7988 98.889 83.7988 98.889C83.7988 98.889 83.6409 96.9108 83.4459 94.1616C83.3762 93.0843 83.3623 92.0301 83.3855 90.976Z" fill="#34323D"/>
<path d="M112.618 53.7467C112.414 53.8675 112.191 54.0068 111.936 54.1786C112.277 53.7424 112.579 53.2761 112.836 52.7855C113.092 52.3582 112.456 52.0053 112.144 52.3211C111.264 53.2784 110.316 54.1708 109.307 54.9913C109.26 55.0263 109.22 55.0705 109.191 55.1213H108.573C108.388 55.1213 108.216 55.1213 108.044 55.1213H107.895C107.833 55.1081 107.768 55.111 107.707 55.1297C107.647 55.1484 107.591 55.1823 107.547 55.2281C107.466 55.2554 107.388 55.2912 107.315 55.3349C107.291 55.351 107.269 55.3697 107.25 55.3906C107.046 55.3906 106.841 55.4278 106.642 55.4556C106.575 55.47 106.512 55.499 106.457 55.5406C106.403 55.5821 106.358 55.6352 106.327 55.696C106.295 55.7568 106.278 55.8238 106.275 55.8923C106.272 55.9607 106.285 56.0289 106.312 56.0918L106.228 56.0454C105.764 55.7621 105.406 56.5098 105.861 56.8023C106.828 57.3957 107.941 57.7092 109.075 57.7079C109.126 57.7466 109.186 57.7712 109.25 57.7794C109.313 57.7875 109.378 57.7789 109.437 57.7543L109.632 57.6847C110.595 57.6368 111.544 57.4394 112.446 57.0995C112.687 57.0044 112.941 56.9464 113.199 56.9277C113.031 55.8411 112.818 54.7823 112.618 53.7467Z" fill="#FCBF81"/>
<path d="M94.1591 104.615L96.077 105.302C96.1338 105.477 96.2352 105.634 96.3712 105.758C96.5072 105.882 96.6731 105.968 96.8525 106.008C96.9207 106.089 97.0167 106.142 97.1218 106.157C97.9004 106.211 98.681 106.084 99.4019 105.785C100.331 105.497 103.911 104.123 102.913 106.714C102.258 107.178 101.519 107.573 100.855 107.982C100.479 108.209 100.098 108.446 99.7131 108.65C99.5086 108.79 99.2828 108.895 99.0444 108.961C98.5289 109.04 97.2751 108.65 97.2426 108.785C97.2101 108.92 97.094 109.909 97.094 109.909C97.094 109.909 93.8433 111.153 93.6854 108.98C93.6668 108.669 94.1591 104.615 94.1591 104.615Z" fill="#34323D"/>
<path d="M91.461 84.9762C91.0617 78.5214 90.8388 72.0293 89.4781 65.6813C89.4178 64.0327 88.3497 65.0869 88.424 64.4321C89.0045 59.1242 96.741 65.4398 96.741 65.4398C97.0522 65.6952 97.0939 67.3252 97.1543 67.692C97.5042 69.7322 97.8029 71.7786 98.0506 73.8311C99.3323 84.2007 98.8586 94.5146 98.3338 104.917C96.6899 106.598 95.6126 107.099 92.9656 106.013C92.4362 99.2048 91.9347 92.397 91.4982 85.5799L91.461 84.9762Z" fill="#34323D"/>
<path d="M95.594 52.8876C95.5197 52.5533 94.6653 52.3257 94.3959 52.1864C93.7969 51.8614 94.1452 51.2948 93.56 50.9419C92.7076 50.4455 91.8197 50.0125 90.9038 49.6463H90.8806C89.4131 49.6463 86.9519 49.5627 86.8033 51.5038C86.5758 54.5222 86.8405 57.5407 87.0727 60.5406C87.1655 61.748 87.2723 62.9461 87.3792 64.1256C87.4163 64.5575 87.472 68.0403 87.7321 68.1471C90.6437 69.3545 94.3681 68.9273 97.2193 67.7988C97.0638 62.7939 96.5204 57.8086 95.594 52.8876Z" fill="#399419"/>
<path opacity="0.33" d="M95.594 52.8876C95.5197 52.5533 94.6653 52.3257 94.3959 52.1864C93.7969 51.8614 94.1452 51.2948 93.56 50.9419C92.7076 50.4455 91.8197 50.0125 90.9038 49.6463H90.8806C89.4131 49.6463 86.9519 49.5627 86.8033 51.5038C86.5758 54.5222 86.8405 57.5407 87.0727 60.5406C87.1655 61.748 87.2723 62.9461 87.3792 64.1256C87.4163 64.5575 87.472 68.0403 87.7321 68.1471C90.6437 69.3545 94.3681 68.9273 97.2193 67.7988C97.0638 62.7939 96.5204 57.8086 95.594 52.8876Z" fill="#3F3D56"/>
<path d="M92.9796 55.934C93.0672 56.9383 93.4612 57.8915 94.1082 58.6648C94.7551 59.438 95.6239 59.9939 96.5971 60.2573C96.5971 60.457 96.6574 61.683 96.6807 61.8827C94.3588 61.3254 92.6406 58.4045 92.3991 55.934C92.3573 55.5625 92.9471 55.5625 92.9796 55.934Z" fill="#34323D"/>
<path d="M91.5539 43.5304C91.7443 43.5815 93.3743 47.3244 92.7334 49.5952C92.0926 51.866 88.2336 49.5302 87.2631 47.798C86.2925 46.0659 87.9039 42.6016 91.5539 43.5304Z" fill="#FCBF81"/>
<path d="M91.5075 44.0644C91.5052 44.4119 91.4021 44.7512 91.2109 45.0413C91.0197 45.3314 90.7485 45.5599 90.4301 45.699C89.3481 46.0984 88.4519 46.3677 88.5076 46.8693C88.5633 47.3708 90.4626 46.7996 90.4673 47.942C90.467 48.7126 90.3624 49.4796 90.1562 50.2221C90.0354 50.784 86.794 49.0658 85.726 46.1309C84.6579 43.196 87.3327 42.4159 87.4628 42.4159C87.5928 42.4159 87.8343 41.5986 89.1485 41.3153C90.4626 41.032 90.8295 41.5382 90.8295 41.5382C91.128 41.3585 91.4773 41.2816 91.8237 41.3193C92.1701 41.357 92.4946 41.5074 92.7474 41.7472C93.9594 42.7084 93.6483 44.4638 92.283 45.1743L91.5075 44.0644Z" fill="#34323D"/>
<path d="M92.9749 50.6168C92.9749 50.6168 99.6527 54.4433 102.058 54.4479C103.795 54.4479 107.231 53.886 109.024 53.5703C110.677 54.9634 110.789 57.4246 109.762 59.3053C106.846 59.7697 98.2085 61.0236 95.5011 59.6815C92.2226 58.0562 88.6144 55.8782 88.6144 55.8782C88.6144 55.8782 85.3359 52.674 92.9749 50.6168Z" fill="#399419"/>
<path opacity="0.33" d="M92.9749 50.6168C92.9749 50.6168 99.6527 54.4433 102.058 54.4479C103.795 54.4479 107.231 53.886 109.024 53.5703C110.677 54.9634 110.789 57.4246 109.762 59.3053C106.846 59.7697 98.2085 61.0236 95.5011 59.6815C92.2226 58.0562 88.6144 55.8782 88.6144 55.8782C88.6144 55.8782 85.3359 52.674 92.9749 50.6168Z" fill="#3F3D56"/>
<path d="M111.94 54.1554C111.94 54.1554 112.939 53.3334 113.199 53.5006C113.711 54.1925 113.986 55.0313 113.983 55.8922C113.9 56.7188 113.477 57.42 111.425 57.3968" fill="#FCBF81"/>
<path opacity="0.33" d="M115.664 35.0601L115.562 34.7072L114.439 34.0942V32.1903C114.439 32.1531 115.525 32.8265 115.525 32.8265L115.576 32.7196C115.637 32.427 115.749 32.1473 115.906 31.8931L115.117 30.4349L116.12 29.6733L116.867 31.1779C117.139 31.1103 117.422 31.1103 117.694 31.1779V29.7523L119.138 30.5278V32.037C119.42 32.3069 119.677 32.6023 119.904 32.9193L120.773 32.3853L121.748 34.2428L120.972 34.8604L121.037 35.1716C121.138 35.5007 121.219 35.8357 121.279 36.1746L122.43 36.8062V38.7101L121.335 38.0554C121.287 38.4018 121.167 38.7342 120.982 39.0306L121.804 40.4237L120.763 41.2085L120.034 39.7736H119.106V41.2085L117.736 40.3726V38.9795C117.421 38.6722 117.144 38.3293 116.909 37.9578L116.087 38.5197L115.093 36.6204L115.92 36.0121L115.836 35.7288C115.781 35.4966 115.702 35.2784 115.664 35.0601Z" fill="#3F3D56"/>
<path d="M119.024 37.2791C119.611 37.0484 119.765 36.0428 119.368 35.0331C118.972 34.0233 118.174 33.3918 117.587 33.6225C117 33.8533 116.845 34.8588 117.242 35.8686C117.639 36.8783 118.436 37.5098 119.024 37.2791Z" fill="#399419"/>
<defs>
<linearGradient id="paint0_linear_3_657" x1="26.1322" y1="88.4591" x2="43.2678" y2="76.0091" gradientUnits="userSpaceOnUse">
<stop stop-color="#CCA8FF"/>
<stop offset="1" stop-color="#2E3192"/>
</linearGradient>
<linearGradient id="paint1_linear_3_657" x1="153.869" y1="90.702" x2="164.666" y2="82.8587" gradientUnits="userSpaceOnUse">
<stop stop-color="#CCA8FF"/>
<stop offset="1" stop-color="#2E3192"/>
</linearGradient>
<linearGradient id="paint2_linear_3_657" x1="102.211" y1="90.7624" x2="113.124" y2="75.9905" gradientUnits="userSpaceOnUse">
<stop stop-color="#CCA8FF"/>
<stop offset="1" stop-color="#2E3192"/>
</linearGradient>
<linearGradient id="paint3_linear_3_657" x1="86.2507" y1="111.121" x2="95.9098" y2="99.3023" gradientUnits="userSpaceOnUse">
<stop stop-color="#CCA8FF"/>
<stop offset="1" stop-color="#2E3192"/>
</linearGradient>
</defs>
</svg>
