<svg width="33" height="32" viewBox="0 0 33 32" fill="none" xmlns="http://www.w3.org/2000/svg">
<path d="M16.5 9.33333V4H2.75V28H30.25V9.33333H16.5ZM8.25 25.3333H5.5V22.6667H8.25V25.3333ZM8.25 20H5.5V17.3333H8.25V20ZM8.25 14.6667H5.5V12H8.25V14.6667ZM8.25 9.33333H5.5V6.66667H8.25V9.33333ZM13.75 25.3333H11V22.6667H13.75V25.3333ZM13.75 20H11V17.3333H13.75V20ZM13.75 14.6667H11V12H13.75V14.6667ZM13.75 9.33333H11V6.66667H13.75V9.33333ZM27.5 25.3333H16.5V22.6667H19.25V20H16.5V17.3333H19.25V14.6667H16.5V12H27.5V25.3333ZM24.75 14.6667H22V17.3333H24.75V14.6667ZM24.75 20H22V22.6667H24.75V20Z" fill="#3C3C3C"/>
</svg>
