<svg width="187" height="140" viewBox="0 0 187 140" fill="none" xmlns="http://www.w3.org/2000/svg">
<path d="M78.54 35.9796L5.37626 78.2381C4.6689 78.6514 4.08352 79.2423 3.67896 79.9515C3.27439 80.6607 3.0649 81.4632 3.07153 82.2784C3.07817 83.0935 3.30069 83.8925 3.71674 84.5952C4.1328 85.2978 4.72772 85.8793 5.44171 86.2811L94.9913 136.081C96.0737 136.683 97.2914 137.004 98.5319 137.015C99.7723 137.025 100.995 136.725 102.088 136.142L170.899 99.3813C171.776 98.912 172.511 98.2194 173.029 97.3746C173.547 96.5298 173.83 95.5632 173.847 94.5741C173.865 93.5851 173.617 92.6092 173.129 91.7467C172.642 90.8842 171.932 90.1662 171.072 89.6665L78.54 35.9796Z" fill="#DEDEDE"/>
<path d="M86.408 69.3127L77.7266 73.4643C77.4006 73.622 77.124 73.8649 76.9265 74.1669C76.729 74.4689 76.6181 74.8187 76.6056 75.1787C76.5931 75.5386 76.6795 75.8951 76.8556 76.21C77.0317 76.5248 77.2907 76.7861 77.605 76.9657L98.175 88.8863C98.6197 89.1447 99.1478 89.2223 99.6488 89.1029C100.15 88.9834 100.585 88.6762 100.863 88.2455L105.861 80.5228" fill="#56403D"/>
<path d="M133.64 49.3398L64.3981 9.71895C63.9234 9.4489 63.3857 9.30743 62.8387 9.3087C62.2917 9.30998 61.7546 9.45395 61.2812 9.72621C60.8078 9.99847 60.4147 10.3895 60.1413 10.8601C59.8679 11.3307 59.7237 11.8643 59.7231 12.4077V53.626C59.7231 54.0789 59.8432 54.5238 60.0713 54.916C60.2995 55.3081 60.6277 55.6336 61.0228 55.8597L134.822 98.1739C135.077 98.3198 135.365 98.3966 135.659 98.3966C135.953 98.3966 136.241 98.3198 136.496 98.1739C136.75 98.028 136.962 97.8182 137.108 97.5655C137.255 97.3128 137.333 97.0261 137.333 96.7343V55.6832C137.332 54.3968 136.991 53.1332 136.342 52.0196C135.694 50.906 134.762 49.9818 133.64 49.3398Z" fill="#399419"/>
<path d="M64.4075 12.8349L131.536 51.2019C132.249 51.6148 132.84 52.2067 133.251 52.9182C133.661 53.6298 133.876 54.436 133.873 55.256V86.1558C133.872 86.451 133.793 86.7408 133.644 86.9964C133.495 87.2519 133.282 87.4642 133.024 87.6122C132.767 87.7601 132.475 87.8386 132.178 87.8397C131.881 87.8408 131.588 87.7646 131.33 87.6186L62.8647 48.6107C62.6088 48.465 62.3961 48.2547 62.2484 48.0011C62.1006 47.7474 62.0229 47.4595 62.0232 47.1665V14.1956C62.0201 13.9173 62.0917 13.6433 62.2306 13.4016C62.3696 13.16 62.5709 12.9596 62.8138 12.8209C63.0567 12.6823 63.3324 12.6105 63.6125 12.613C63.8927 12.6155 64.1671 12.6921 64.4075 12.8349Z" fill="white"/>
<path d="M96.118 131.214C96.1568 130.977 96.2533 130.753 96.3991 130.561C96.5449 130.369 96.7357 130.216 96.9548 130.114L99.6429 128.572L103.785 126.19L108.745 123.334L114.023 120.297L119.138 117.367L123.574 114.813L126.847 112.927L128.562 111.933C128.562 111.971 128.623 111.971 128.661 111.961C128.868 111.908 129.085 111.909 129.292 111.964C129.499 112.02 129.687 112.128 129.839 112.278C129.99 112.428 130.1 112.615 130.156 112.82C130.213 113.025 130.215 113.241 130.161 113.447C129.887 114.23 129.368 114.906 128.679 115.374C126.672 116.806 124.576 118.112 122.406 119.285V118.514C123.864 117.72 127.015 115.922 128.338 114.571L127.707 114.938L125.973 115.946L123.359 117.464L120.087 119.359L116.403 121.495L112.527 123.743L108.689 125.972L105.136 128.047L102.055 129.835L99.7177 131.228C98.9978 131.646 98.2171 132.213 97.3802 132.375C97.2186 132.39 97.0556 132.371 96.9019 132.32C96.7482 132.268 96.6071 132.185 96.488 132.075C96.3689 131.965 96.2744 131.832 96.2107 131.684C96.1469 131.536 96.1153 131.376 96.118 131.214Z" fill="#399419"/>
<path d="M92.6511 71.1143C93.4421 70.9629 93.9421 70.1114 93.7678 69.2124C93.5935 68.3133 92.8109 67.7071 92.0199 67.8584C91.2288 68.0097 90.7289 68.8612 90.9032 69.7603C91.0775 70.6594 91.86 71.2656 92.6511 71.1143Z" fill="#AB643C"/>
<path d="M112.331 53.6492L125.346 61.1768C125.467 61.2468 125.568 61.3471 125.637 61.4677C125.707 61.5883 125.744 61.725 125.743 61.8641C125.747 62.0053 125.712 62.145 125.644 62.2686C125.575 62.3922 125.474 62.4953 125.351 62.5672C125.229 62.6391 125.089 62.6773 124.947 62.6778C124.805 62.6783 124.665 62.641 124.542 62.5699L111.527 55.0749C111.406 55.0049 111.305 54.9046 111.236 54.784C111.166 54.6634 111.129 54.5267 111.129 54.3876V54.3411C111.128 54.201 111.165 54.0632 111.235 53.9416C111.305 53.8199 111.406 53.7188 111.528 53.6486C111.65 53.5783 111.788 53.5414 111.929 53.5415C112.071 53.5416 112.209 53.5788 112.331 53.6492Z" fill="#76CC23"/>
<path d="M112.331 57.7265L125.346 65.268C125.467 65.3379 125.568 65.4382 125.637 65.5588C125.707 65.6795 125.744 65.8162 125.743 65.9553C125.744 66.095 125.707 66.2322 125.636 66.3532C125.566 66.4742 125.465 66.5746 125.343 66.6443C125.221 66.714 125.083 66.7506 124.942 66.7503C124.802 66.75 124.664 66.7128 124.542 66.6425L111.527 59.1475C111.406 59.0775 111.305 58.9772 111.236 58.8566C111.166 58.736 111.129 58.5993 111.129 58.4602V58.3905C111.133 58.2528 111.173 58.1184 111.245 58.0007C111.317 57.8829 111.419 57.7857 111.54 57.7187C111.661 57.6517 111.798 57.6172 111.936 57.6186C112.075 57.6199 112.211 57.6571 112.331 57.7265Z" fill="#76CC23"/>
<path d="M112.331 61.8037L125.346 69.3452C125.467 69.4152 125.568 69.5155 125.637 69.6361C125.707 69.7567 125.744 69.8934 125.743 70.0325C125.744 70.1722 125.707 70.3095 125.636 70.4305C125.566 70.5514 125.465 70.6519 125.343 70.7216C125.221 70.7913 125.083 70.8278 124.942 70.8275C124.802 70.8272 124.664 70.79 124.542 70.7198L111.527 63.2201C111.406 63.1501 111.305 63.0498 111.236 62.9292C111.166 62.8086 111.129 62.6719 111.129 62.5328V62.4863C111.13 62.347 111.168 62.2104 111.238 62.09C111.309 61.9697 111.41 61.8699 111.532 61.8008C111.654 61.7316 111.792 61.6955 111.932 61.696C112.072 61.6965 112.21 61.7336 112.331 61.8037Z" fill="#76CC23"/>
<path d="M112.331 65.881L125.346 73.4225C125.467 73.4924 125.568 73.5927 125.637 73.7133C125.707 73.834 125.744 73.9707 125.743 74.1098C125.744 74.2495 125.707 74.3867 125.636 74.5077C125.566 74.6287 125.465 74.7291 125.343 74.7988C125.221 74.8685 125.083 74.9051 124.942 74.9048C124.802 74.9045 124.664 74.8673 124.542 74.797L111.527 67.302C111.406 67.232 111.305 67.1317 111.236 67.0111C111.166 66.8905 111.129 66.7538 111.129 66.6147V66.5682C111.129 66.4285 111.166 66.2913 111.237 66.1703C111.307 66.0493 111.408 65.9489 111.53 65.8792C111.652 65.8095 111.79 65.7729 111.931 65.7732C112.071 65.7735 112.209 65.8107 112.331 65.881Z" fill="#76CC23"/>
<path d="M131.134 54.1229C131.539 54.1229 131.868 53.7694 131.868 53.3334C131.868 52.8974 131.539 52.544 131.134 52.544C130.728 52.544 130.4 52.8974 130.4 53.3334C130.4 53.7694 130.728 54.1229 131.134 54.1229Z" fill="#155A93"/>
<path d="M128.806 52.9341C129.211 52.9341 129.54 52.5806 129.54 52.1446C129.54 51.7086 129.211 51.3552 128.806 51.3552C128.4 51.3552 128.072 51.7086 128.072 52.1446C128.072 52.5806 128.4 52.9341 128.806 52.9341Z" fill="#659FE4"/>
<path d="M126.473 51.7267C126.912 51.7267 127.268 51.4003 127.268 50.9976C127.268 50.595 126.912 50.2685 126.473 50.2685C126.034 50.2685 125.678 50.595 125.678 50.9976C125.678 51.4003 126.034 51.7267 126.473 51.7267Z" fill="#C5E9FF"/>
<path style="mix-blend-mode:multiply" d="M149.778 94.8814L141.652 99.6692C141.652 99.6692 144.172 104.058 150.381 106.635L159.848 101.578" fill="url(#paint0_linear_3_605)"/>
<path d="M156.561 101.968C160.726 101.968 164.102 99.606 164.102 96.6925C164.102 93.779 160.726 91.4172 156.561 91.4172C152.396 91.4172 149.02 93.779 149.02 96.6925C149.02 99.606 152.396 101.968 156.561 101.968Z" fill="#399419"/>
<path d="M156.556 95.8752C159.675 95.8752 162.204 94.8461 162.204 93.5765C162.204 92.307 159.675 91.2779 156.556 91.2779C153.437 91.2779 150.909 92.307 150.909 93.5765C150.909 94.8461 153.437 95.8752 156.556 95.8752Z" fill="#974C26"/>
<path d="M156.351 89.7454C156.351 88.7098 156.313 87.6743 156.234 86.6387C156.212 86.3694 156.187 86.1016 156.159 85.8353L156.098 85.3245C156.075 85.1713 156.014 84.7719 156.019 84.7858C155.984 84.5753 155.947 84.3648 155.907 84.1543C155.289 80.6372 153.913 77.2946 151.872 74.3559C151.105 76.1707 150.723 78.123 150.75 80.091C150.75 80.6622 150.797 81.2287 150.844 81.7952C150.844 81.9485 150.844 82.0135 150.844 82.0367C150.844 82.0599 150.844 82.0042 150.867 82.1342C150.914 82.4129 150.965 82.6915 151.021 82.9701C151.244 84.0271 151.542 85.0668 151.914 86.0815C152.249 87.0158 152.657 87.9226 153.134 88.7934C153.644 89.7733 154.205 90.7253 154.803 91.654C155.271 92.3831 155.715 93.0471 156.159 93.6508C156.285 92.3366 156.346 91.041 156.351 89.7454ZM153.382 78.0988C153.403 77.9637 153.393 77.8258 153.354 77.6948C153.5 77.8403 153.642 77.9951 153.779 78.1592C153.651 78.117 153.517 78.0951 153.382 78.0941V78.0988Z" fill="#999A1C"/>
<path d="M158.296 90.5441C158.861 89.6711 159.394 88.7795 159.885 87.8647C160.013 87.6263 160.137 87.3879 160.259 87.1495L160.497 86.6851L160.722 86.1883C160.806 85.9932 160.889 85.7966 160.97 85.5985C162.365 82.3092 163.026 78.7591 162.91 75.1918C161.276 76.3077 159.891 77.7463 158.842 79.4176C158.539 79.882 158.263 80.3975 157.996 80.899L157.879 81.1126C157.879 81.1126 157.879 81.0847 157.847 81.2055C157.735 81.4655 157.627 81.7256 157.524 81.9903C157.139 82.9993 156.826 84.0344 156.589 85.0877C156.356 86.0523 156.2 87.0336 156.122 88.0226C156.019 89.1231 155.972 90.2237 155.967 91.3289C155.967 92.1927 155.967 92.9775 156.023 93.7391C156.828 92.6942 157.59 91.6354 158.296 90.5441ZM162.138 79.1529C162.229 79.051 162.296 78.9305 162.335 78.8C162.378 79.0012 162.416 79.204 162.447 79.4083C162.358 79.3078 162.254 79.2216 162.138 79.1529Z" fill="#999A1C"/>
<path d="M158.253 93.1261C158.842 92.8382 159.419 92.5286 159.983 92.1973L160.418 91.9326L160.703 91.7515L160.984 91.5565L161.311 91.3196C163.132 89.9909 164.643 88.2863 165.738 86.3229C164.494 86.4011 163.28 86.7331 162.171 87.2981C161.849 87.4607 161.54 87.6418 161.236 87.8275L161.105 87.9065C161.105 87.9065 161.105 87.9065 161.058 87.9482L160.628 88.2687C160.091 88.6889 159.585 89.1467 159.114 89.6386C158.677 90.0866 158.277 90.5679 157.917 91.0782C157.505 91.6401 157.122 92.2205 156.762 92.8149C156.482 93.2793 156.234 93.7112 156.009 94.1338C156.767 93.818 157.515 93.4883 158.253 93.1261ZM164.032 88.2083C164.113 88.1828 164.188 88.1401 164.251 88.0829C164.208 88.2037 164.163 88.3244 164.116 88.4451C164.1 88.3639 164.072 88.2856 164.032 88.2129V88.2083Z" fill="#999A1C"/>
<path d="M156.351 89.7454C156.351 88.7098 156.313 87.6743 156.234 86.6387C156.212 86.3694 156.187 86.1016 156.159 85.8353L156.098 85.3245C156.075 85.1713 156.014 84.7719 156.019 84.7858C155.984 84.5753 155.947 84.3648 155.907 84.1543C155.289 80.6372 153.913 77.2946 151.872 74.3559C151.105 76.1707 150.723 78.123 150.75 80.091C150.75 80.6622 150.797 81.2287 150.844 81.7952C150.844 81.9485 150.844 82.0135 150.844 82.0367C150.844 82.0599 150.844 82.0042 150.867 82.1342C150.914 82.4129 150.965 82.6915 151.021 82.9701C151.244 84.0271 151.542 85.0668 151.914 86.0815C152.249 87.0158 152.657 87.9226 153.134 88.7934C153.644 89.7733 154.205 90.7253 154.803 91.654C155.271 92.3831 155.715 93.0471 156.159 93.6508C156.285 92.3366 156.346 91.041 156.351 89.7454ZM153.382 78.0988C153.403 77.9637 153.393 77.8258 153.354 77.6948C153.5 77.8403 153.642 77.9951 153.779 78.1592C153.651 78.117 153.517 78.0951 153.382 78.0941V78.0988Z" fill="#999A1C"/>
<path d="M158.296 90.5441C158.861 89.6711 159.394 88.7795 159.885 87.8647C160.013 87.6263 160.137 87.3879 160.259 87.1495L160.497 86.6851L160.722 86.1883C160.806 85.9932 160.889 85.7966 160.97 85.5985C162.365 82.3092 163.026 78.7591 162.91 75.1918C161.276 76.3077 159.891 77.7463 158.842 79.4176C158.539 79.882 158.263 80.3975 157.996 80.899L157.879 81.1126C157.879 81.1126 157.879 81.0847 157.847 81.2055C157.735 81.4655 157.627 81.7256 157.524 81.9903C157.139 82.9993 156.826 84.0344 156.589 85.0877C156.356 86.0523 156.2 87.0336 156.122 88.0226C156.019 89.1231 155.972 90.2237 155.967 91.3289C155.967 92.1927 155.967 92.9775 156.023 93.7391C156.828 92.6942 157.59 91.6354 158.296 90.5441ZM162.138 79.1529C162.229 79.051 162.296 78.9305 162.335 78.8C162.378 79.0012 162.416 79.204 162.447 79.4083C162.358 79.3078 162.254 79.2216 162.138 79.1529Z" fill="#999A1C"/>
<path d="M158.253 93.1261C158.842 92.8382 159.419 92.5286 159.983 92.1973L160.418 91.9326L160.703 91.7515L160.984 91.5565L161.311 91.3196C163.132 89.9909 164.643 88.2863 165.738 86.3229C164.494 86.4011 163.28 86.7331 162.171 87.2981C161.849 87.4607 161.54 87.6418 161.236 87.8275L161.105 87.9065C161.105 87.9065 161.105 87.9065 161.058 87.9482L160.628 88.2687C160.091 88.6889 159.585 89.1467 159.114 89.6386C158.677 90.0866 158.277 90.5679 157.917 91.0782C157.505 91.6401 157.122 92.2205 156.762 92.8149C156.482 93.2793 156.234 93.7112 156.009 94.1338C156.767 93.818 157.515 93.4883 158.253 93.1261ZM164.032 88.2083C164.113 88.1828 164.188 88.1401 164.251 88.0829C164.208 88.2037 164.163 88.3244 164.116 88.4451C164.1 88.3639 164.072 88.2856 164.032 88.2129V88.2083Z" fill="#999A1C"/>
<path d="M68.5636 24.0265V44.9003L85.6834 54.6523C85.9046 54.7776 86.1591 54.8327 86.4127 54.8102V34.3218L68.5636 24.0265Z" fill="white" stroke="#39B54A" stroke-width="0.4675" stroke-miterlimit="10"/>
<path d="M101.6 62.5154C104.813 61.9009 106.585 57.1155 105.56 51.8268C104.535 46.5381 101.1 42.7489 97.8874 43.3633C94.6751 43.9778 92.9022 48.7633 93.9275 54.0519C94.9527 59.3406 98.388 63.1298 101.6 62.5154Z" fill="#76CC23"/>
<path d="M95.7113 53.0641L96.8754 51.4527L98.75 54.4572L102.574 49.2655L103.462 51.3459L98.5864 57.5314L95.7113 53.0641Z" fill="white"/>
<path d="M80.5689 35.8496C80.7045 35.9239 82.7475 41.7704 82.855 42.0769L80.611 42.6666L79.7602 39.416L79.6386 46.9575L74.44 44.0876L74.5569 36.9409L73.8369 38.8866L71.6116 36.8201L73.1591 33.3141L73.6967 32.0602L75.9407 33.3141C75.9407 33.393 76.0763 34.8976 77.1842 35.5106C78.2922 36.1235 78.2782 34.684 78.2782 34.605L80.5689 35.8496Z" fill="#56403D"/>
<path d="M29.2234 38.4222C22.9402 38.8541 23.2675 48.9497 22.842 53.143C22.7345 54.1972 24.3708 54.5362 24.4783 53.4867C24.8336 49.9946 24.5998 45.2672 26.5493 42.193C27.1524 41.2642 27.8723 40.3355 29.1065 40.2287C29.4851 40.2155 29.8624 40.28 30.2147 40.4182C30.5671 40.5565 30.8869 40.7654 31.1542 41.032C31.7058 41.5243 31.9957 43.4793 32.0892 44.0598C32.4164 46.2233 32.4542 48.4203 32.2014 50.5936C32.0892 51.6477 33.7208 51.9867 33.8376 50.9372C34.1836 47.6169 34.8241 38.0182 29.2234 38.4222Z" fill="#F9A43E"/>
<path d="M38.6248 45.1789L40.5135 48.3089L44.2956 49.0937L41.4579 58.7945L33.4262 53.6306" fill="#8D57C1"/>
<path d="M19.2469 55.8225L38.6248 45.1789L37.9937 60.9864L23.1833 62.3935L19.2469 55.8225Z" fill="#64359B"/>
<path d="M26.18 58.1676L29.172 88.0551L47.2876 77.2582L44.2956 49.0937L26.18 58.1676Z" fill="#8D57C1"/>
<path d="M26.18 58.1676L24.1324 55.8225H19.247L17.1993 81.9531L22.4587 84.3586L29.172 88.0551L26.18 58.1676Z" fill="#7141AA"/>
<path d="M37.3112 43.4004C31.0093 43.4561 30.7288 53.5563 30.0556 57.7172C29.8873 58.762 31.4955 59.2125 31.6638 58.1583C32.2294 54.6941 32.2762 49.962 34.4127 47.0132C35.2869 45.8059 36.8203 44.7842 38.3303 45.5783C39.6814 46.2888 39.7001 47.877 39.8357 49.2051C40.0308 51.3845 39.9349 53.5799 39.5505 55.7343C39.3775 56.7791 40.9857 57.2296 41.1587 56.1754C41.7103 52.8923 42.9258 43.3493 37.3112 43.4004Z" fill="#F9A43E"/>
<path style="mix-blend-mode:multiply" opacity="0.21" d="M64.9825 109.593L71.4106 105.636L101.611 115.802C101.611 115.802 93.1961 120.413 88.4183 123.283C85.3 121.569 71.3872 112.449 64.9825 109.593Z" fill="url(#paint1_linear_3_605)"/>
<path d="M79.447 56.3333C79.447 56.3333 80.957 55.0749 81.1954 54.3783C81.4338 53.6817 81.7096 52.7112 82.1304 52.8551C82.5511 52.9991 82.0463 54.3783 82.0463 54.3783C82.0463 54.3783 83.9163 52.9294 84.309 53.2127C84.7017 53.496 83.1589 54.5733 83.1589 54.5733C83.1589 54.5733 85.3608 53.2591 85.6413 53.7746C85.9218 54.29 83.6498 55.321 83.6498 55.321C83.6498 55.321 85.646 54.3504 85.5665 54.982C85.5198 55.3767 83.4581 56.3333 83.4581 56.3333C83.4581 56.3333 85.0757 56.5005 84.5754 56.8256C84.0752 57.1506 82.7522 57.1042 82.7522 57.1042C82.7522 57.1042 80.4848 58.5995 78.5961 58.7667" fill="#EEAD97"/>
<path d="M86.3192 61.5669C86.74 61.5158 89.3533 60.2945 89.6338 59.8998C89.9143 59.505 90.6763 56.9695 91.228 57.146C91.7796 57.3224 90.6295 59.6397 90.9474 59.6861C91.2653 59.7326 94.7996 59.6861 94.9679 60.1041C95.1362 60.522 93.2148 60.6149 93.2148 60.6149C93.2148 60.6149 95.6038 60.4338 95.2765 61.0793C94.9493 61.7248 92.5603 61.5854 92.5603 61.5854C92.5603 61.5854 94.996 62.073 94.622 62.5374C94.248 63.0018 91.9619 62.2588 91.9619 62.2588C91.9619 62.2588 93.673 63.4476 93.0793 63.6984C92.4855 63.9491 90.6997 62.7092 90.5127 62.7417C90.3257 62.7743 86.3052 64.5761 86.3052 64.5761" fill="#EEAD97"/>
<path d="M77.1375 108.799C77.1469 108.905 77.1965 109.004 77.2763 109.076C77.3561 109.147 77.4601 109.186 77.5676 109.184C77.9603 109.217 81.6629 107.633 82.5652 109.779C82.6189 109.911 82.624 110.058 82.5796 110.194C82.5351 110.33 82.444 110.446 82.3221 110.522C80.4862 111.694 78.4098 112.445 76.2446 112.718C75.5028 112.868 74.7318 112.771 74.052 112.44L74.225 108.395L77.1375 108.799Z" fill="#C24327"/>
<path d="M68.2129 106.932C68.2129 106.932 71.6724 104.689 72.2802 106.115C72.7477 107.211 68.6056 110.41 67.0863 110.661C65.5669 110.912 65.3565 109.324 65.3565 109.324L65.4079 106.718" fill="#C24327"/>
<path d="M74.9917 74.2723C74.9917 74.2723 78.4605 81.7024 78.3998 108.492C78.3998 108.492 77.6938 110.35 72.6822 109.073L70.6486 85.1388L69.7697 107.225C69.7697 107.225 67.4322 108.961 63.7577 106.876C63.7577 106.876 64.5758 77.3279 66.5627 72.0479" fill="#8CC63F"/>
<path d="M67.3621 58.5298C67.3621 58.5298 74.4494 57.4989 77.2777 56.2079L80.0827 54.9263C80.0827 54.9263 81.6769 56.7466 81.3637 58.6413C81.0505 60.536 72.5653 63.3408 68.5589 63.3501" fill="#AA2E1A"/>
<path d="M66.413 72.9209C65.5435 69.2756 63.7576 59.8487 65.6744 58.4137C67.3434 57.1646 71.233 58.5205 74.2016 60.5127C76.6373 62.1473 75.6415 71.6578 75.2207 74.9735C71.995 75.3682 68.9843 74.811 66.413 72.9209Z" fill="#C24327"/>
<path d="M74.2016 60.5127C74.2016 60.5127 81.3076 61.4043 84.3791 60.9214L87.4459 60.457C87.4459 60.457 88.4884 62.6349 87.6703 64.3949C86.8521 66.1549 77.9276 66.5775 74.0613 65.5187" fill="#C24327"/>
<path d="M73.6967 53.0827C73.6967 53.0827 73.7808 57.9261 72.4204 58.0469C71.8843 58.1329 71.3345 58.0435 70.8539 57.7923C70.3733 57.541 69.9879 57.1414 69.7557 56.6537" fill="#EEAD97"/>
<path d="M71.7285 57.4618V59.7837C71.7285 59.7837 70.485 60.248 68.7412 59.1057V57.2481" fill="#EEAD97"/>
<path d="M73.4536 53.9789C73.4536 53.9789 75.1132 52.27 74.0286 50.8119C72.944 49.3537 71.7332 50.1153 71.7332 50.1153C71.7332 50.1153 71.4761 49.4837 70.2045 49.3537C68.9329 49.2237 68.4186 50.4961 67.9091 50.8119C67.3995 51.1276 66.5673 52.061 66.5066 52.8319C66.4458 53.6028 67.5912 57.9122 68.9329 58.228C70.2746 58.5438 71.995 59.0499 73.4536 53.9789Z" fill="#C24327"/>
<defs>
<linearGradient id="paint0_linear_3_605" x1="155.304" y1="95.6662" x2="147.205" y2="104.608" gradientUnits="userSpaceOnUse">
<stop stop-color="#D4A397"/>
<stop offset="1" stop-color="white"/>
</linearGradient>
<linearGradient id="paint1_linear_3_605" x1="85.9919" y1="114.687" x2="96.1989" y2="120.261" gradientUnits="userSpaceOnUse">
<stop stop-color="#7F3500"/>
<stop offset="0.04" stop-color="#843D0A"/>
<stop offset="1" stop-color="white"/>
</linearGradient>
</defs>
</svg>
