<svg width="247" height="44" viewBox="0 0 247 44" fill="none" xmlns="http://www.w3.org/2000/svg">
  <rect width="247" height="44" />
  <path
    d="M48.308 16.328C48.2713 16.1227 48.242 15.9173 48.22 15.712C48.2053 15.5067 48.198 15.3233 48.198 15.162C48.198 14.9933 48.2053 14.8063 48.22 14.601C48.242 14.3883 48.2713 14.1793 48.308 13.974H58.736C58.8313 14.304 58.879 14.667 58.879 15.063C58.879 15.525 58.7543 15.8513 58.505 16.042C58.263 16.2327 57.8817 16.328 57.361 16.328H56.239C56.085 16.328 55.865 16.3243 55.579 16.317C55.293 16.3097 55.073 16.306 54.919 16.306H52.103C51.949 16.306 51.729 16.3097 51.443 16.317C51.1643 16.3243 50.9443 16.328 50.783 16.328H48.308ZM52.103 17.934C52.103 17.6333 52.103 17.3657 52.103 17.131C52.1103 16.889 52.114 16.614 52.114 16.306V15.14H54.897V16.306C54.897 16.614 54.9007 16.889 54.908 17.131C54.9153 17.3657 54.919 17.6333 54.919 17.934V29C54.6843 29.044 54.4423 29.0697 54.193 29.077C53.9437 29.0917 53.7163 29.099 53.511 29.099C53.313 29.099 53.0857 29.0917 52.829 29.077C52.5797 29.0697 52.3377 29.044 52.103 29V17.934ZM64.8305 22.444C64.7498 22.444 64.6288 22.444 64.4675 22.444C64.3135 22.4367 64.1558 22.433 63.9945 22.433C63.8405 22.4257 63.7195 22.422 63.6315 22.422C63.3602 22.422 63.0815 22.4257 62.7955 22.433C62.5168 22.4403 62.2382 22.444 61.9595 22.444V20.057C62.2382 20.057 62.5168 20.0607 62.7955 20.068C63.0815 20.0753 63.3602 20.079 63.6315 20.079C63.7195 20.079 63.8405 20.079 63.9945 20.079C64.1558 20.0717 64.3135 20.068 64.4675 20.068C64.6288 20.0607 64.7498 20.057 64.8305 20.057H68.0755C68.1635 20.057 68.2845 20.0607 68.4385 20.068C68.5925 20.068 68.7465 20.0717 68.9005 20.079C69.0618 20.079 69.1828 20.079 69.2635 20.079C69.5348 20.079 69.8135 20.0753 70.0995 20.068C70.3855 20.0607 70.6678 20.057 70.9465 20.057V22.444C70.6678 22.444 70.3855 22.4403 70.0995 22.433C69.8135 22.4257 69.5348 22.422 69.2635 22.422C69.1828 22.422 69.0618 22.4257 68.9005 22.433C68.7465 22.433 68.5925 22.4367 68.4385 22.444C68.2845 22.444 68.1635 22.444 68.0755 22.444H64.8305ZM63.6535 29C63.4335 29.044 63.1952 29.0697 62.9385 29.077C62.6818 29.0917 62.4508 29.099 62.2455 29.099C62.0622 29.099 61.8385 29.0917 61.5745 29.077C61.3105 29.0697 61.0685 29.044 60.8485 29V13.974C61.0685 13.93 61.3105 13.9043 61.5745 13.897C61.8385 13.8823 62.0622 13.875 62.2455 13.875C62.4508 13.875 62.6818 13.8823 62.9385 13.897C63.1952 13.9043 63.4335 13.93 63.6535 13.974V18.451C63.6535 18.759 63.6498 19.034 63.6425 19.276C63.6352 19.5107 63.6315 19.7783 63.6315 20.079V22.422C63.6315 22.7153 63.6352 22.983 63.6425 23.225C63.6498 23.467 63.6535 23.742 63.6535 24.05V29ZM69.2415 24.05C69.2415 23.742 69.2452 23.467 69.2525 23.225C69.2598 22.983 69.2635 22.7153 69.2635 22.422V20.079C69.2635 19.7783 69.2598 19.5107 69.2525 19.276C69.2452 19.034 69.2415 18.759 69.2415 18.451V13.974C69.4615 13.93 69.6998 13.9043 69.9565 13.897C70.2132 13.8823 70.4405 13.875 70.6385 13.875C70.8365 13.875 71.0675 13.8823 71.3315 13.897C71.5955 13.9043 71.8375 13.93 72.0575 13.974V29C71.8228 29.044 71.5845 29.0697 71.3425 29.077C71.1005 29.0917 70.8732 29.099 70.6605 29.099C70.4625 29.099 70.2315 29.0917 69.9675 29.077C69.7108 29.0697 69.4688 29.044 69.2415 29V24.05ZM79.1682 13.974C79.3955 13.9447 79.6668 13.9227 79.9822 13.908C80.2975 13.886 80.5688 13.875 80.7962 13.875C81.0235 13.875 81.2948 13.886 81.6102 13.908C81.9255 13.9227 82.1895 13.9483 82.4022 13.985L87.2532 28.824C87.0552 28.934 86.8058 29.0183 86.5052 29.077C86.2045 29.1357 85.9112 29.165 85.6252 29.165C85.1852 29.165 84.8405 29.066 84.5912 28.868C84.3418 28.6627 84.1292 28.263 83.9532 27.669L81.8742 20.838C81.6835 20.2073 81.4782 19.5107 81.2582 18.748C81.0455 17.9853 80.8585 17.285 80.6972 16.647H80.5762C80.4662 17.1823 80.3158 17.791 80.1252 18.473C79.9345 19.155 79.7695 19.738 79.6302 20.222L76.9022 29.022C76.7335 29.066 76.5465 29.0917 76.3412 29.099C76.1358 29.1137 75.9232 29.121 75.7032 29.121C75.4758 29.121 75.2338 29.1063 74.9772 29.077C74.7278 29.0477 74.5152 29.0037 74.3392 28.945L74.2512 28.802L79.1682 13.974ZM79.1022 25.568C79.0142 25.568 78.8785 25.568 78.6952 25.568C78.5192 25.5607 78.3395 25.557 78.1562 25.557C77.9802 25.5497 77.8482 25.546 77.7602 25.546H76.3742L77.2432 23.302H78.4642C78.5522 23.302 78.6768 23.302 78.8382 23.302C79.0068 23.2947 79.1718 23.291 79.3332 23.291C79.4945 23.2837 79.6155 23.28 79.6962 23.28H81.6542C81.7422 23.28 81.8668 23.2837 82.0282 23.291C82.1968 23.291 82.3618 23.2947 82.5232 23.302C82.6918 23.302 82.8202 23.302 82.9082 23.302H84.1622L84.8882 25.546H83.5132C83.4252 25.546 83.2895 25.5497 83.1062 25.557C82.9228 25.557 82.7395 25.5607 82.5562 25.568C82.3802 25.568 82.2482 25.568 82.1602 25.568H79.1022ZM89.5097 13.974C89.7224 13.93 89.9607 13.9043 90.2247 13.897C90.496 13.8823 90.7234 13.875 90.9067 13.875C91.112 13.875 91.343 13.8823 91.5997 13.897C91.8637 13.9043 92.1057 13.93 92.3257 13.974V29C92.1057 29.044 91.8637 29.0697 91.5997 29.077C91.343 29.0917 91.112 29.099 90.9067 29.099C90.7234 29.099 90.496 29.0917 90.2247 29.077C89.9607 29.0697 89.7224 29.044 89.5097 29V13.974Z"
    fill="#3C3C3C"/>
  <path
    d="M102.914 13.974C103.127 13.93 103.365 13.9043 103.629 13.897C103.9 13.8823 104.128 13.875 104.311 13.875C104.516 13.875 104.747 13.8823 105.004 13.897C105.268 13.9043 105.51 13.93 105.73 13.974V29C105.51 29.044 105.268 29.0697 105.004 29.077C104.747 29.0917 104.516 29.099 104.311 29.099C104.128 29.099 103.9 29.0917 103.629 29.077C103.365 29.0697 103.127 29.044 102.914 29V13.974ZM107.947 16.328C107.91 16.1227 107.881 15.9173 107.859 15.712C107.844 15.5067 107.837 15.3233 107.837 15.162C107.837 14.9933 107.844 14.8063 107.859 14.601C107.881 14.3883 107.91 14.1793 107.947 13.974H118.375C118.47 14.304 118.518 14.667 118.518 15.063C118.518 15.525 118.393 15.8513 118.144 16.042C117.902 16.2327 117.52 16.328 117 16.328H115.878C115.724 16.328 115.504 16.3243 115.218 16.317C114.932 16.3097 114.712 16.306 114.558 16.306H111.742C111.588 16.306 111.368 16.3097 111.082 16.317C110.803 16.3243 110.583 16.328 110.422 16.328H107.947ZM111.742 17.934C111.742 17.6333 111.742 17.3657 111.742 17.131C111.749 16.889 111.753 16.614 111.753 16.306V15.14H114.536V16.306C114.536 16.614 114.539 16.889 114.547 17.131C114.554 17.3657 114.558 17.6333 114.558 17.934V29C114.323 29.044 114.081 29.0697 113.832 29.077C113.582 29.0917 113.355 29.099 113.15 29.099C112.952 29.099 112.724 29.0917 112.468 29.077C112.218 29.0697 111.976 29.044 111.742 29V17.934Z"
    fill="#3C3C3C"/>
  <path
    d="M130.852 22.444C130.771 22.444 130.65 22.444 130.489 22.444C130.335 22.4367 130.177 22.433 130.016 22.433C129.862 22.4257 129.741 22.422 129.653 22.422C129.382 22.422 129.103 22.4257 128.817 22.433C128.538 22.4403 128.26 22.444 127.981 22.444V20.057C128.26 20.057 128.538 20.0607 128.817 20.068C129.103 20.0753 129.382 20.079 129.653 20.079C129.741 20.079 129.862 20.079 130.016 20.079C130.177 20.0717 130.335 20.068 130.489 20.068C130.65 20.0607 130.771 20.057 130.852 20.057H134.097C134.185 20.057 134.306 20.0607 134.46 20.068C134.614 20.068 134.768 20.0717 134.922 20.079C135.083 20.079 135.204 20.079 135.285 20.079C135.556 20.079 135.835 20.0753 136.121 20.068C136.407 20.0607 136.689 20.057 136.968 20.057V22.444C136.689 22.444 136.407 22.4403 136.121 22.433C135.835 22.4257 135.556 22.422 135.285 22.422C135.204 22.422 135.083 22.4257 134.922 22.433C134.768 22.433 134.614 22.4367 134.46 22.444C134.306 22.444 134.185 22.444 134.097 22.444H130.852ZM129.675 29C129.455 29.044 129.217 29.0697 128.96 29.077C128.703 29.0917 128.472 29.099 128.267 29.099C128.084 29.099 127.86 29.0917 127.596 29.077C127.332 29.0697 127.09 29.044 126.87 29V13.974C127.09 13.93 127.332 13.9043 127.596 13.897C127.86 13.8823 128.084 13.875 128.267 13.875C128.472 13.875 128.703 13.8823 128.96 13.897C129.217 13.9043 129.455 13.93 129.675 13.974V18.451C129.675 18.759 129.671 19.034 129.664 19.276C129.657 19.5107 129.653 19.7783 129.653 20.079V22.422C129.653 22.7153 129.657 22.983 129.664 23.225C129.671 23.467 129.675 23.742 129.675 24.05V29ZM135.263 24.05C135.263 23.742 135.267 23.467 135.274 23.225C135.281 22.983 135.285 22.7153 135.285 22.422V20.079C135.285 19.7783 135.281 19.5107 135.274 19.276C135.267 19.034 135.263 18.759 135.263 18.451V13.974C135.483 13.93 135.721 13.9043 135.978 13.897C136.235 13.8823 136.462 13.875 136.66 13.875C136.858 13.875 137.089 13.8823 137.353 13.897C137.617 13.9043 137.859 13.93 138.079 13.974V29C137.844 29.044 137.606 29.0697 137.364 29.077C137.122 29.0917 136.895 29.099 136.682 29.099C136.484 29.099 136.253 29.0917 135.989 29.077C135.732 29.0697 135.49 29.044 135.263 29V24.05ZM145.19 13.974C145.417 13.9447 145.688 13.9227 146.004 13.908C146.319 13.886 146.59 13.875 146.818 13.875C147.045 13.875 147.316 13.886 147.632 13.908C147.947 13.9227 148.211 13.9483 148.424 13.985L153.275 28.824C153.077 28.934 152.827 29.0183 152.527 29.077C152.226 29.1357 151.933 29.165 151.647 29.165C151.207 29.165 150.862 29.066 150.613 28.868C150.363 28.6627 150.151 28.263 149.975 27.669L147.896 20.838C147.705 20.2073 147.5 19.5107 147.28 18.748C147.067 17.9853 146.88 17.285 146.719 16.647H146.598C146.488 17.1823 146.337 17.791 146.147 18.473C145.956 19.155 145.791 19.738 145.652 20.222L142.924 29.022C142.755 29.066 142.568 29.0917 142.363 29.099C142.157 29.1137 141.945 29.121 141.725 29.121C141.497 29.121 141.255 29.1063 140.999 29.077C140.749 29.0477 140.537 29.0037 140.361 28.945L140.273 28.802L145.19 13.974ZM145.124 25.568C145.036 25.568 144.9 25.568 144.717 25.568C144.541 25.5607 144.361 25.557 144.178 25.557C144.002 25.5497 143.87 25.546 143.782 25.546H142.396L143.265 23.302H144.486C144.574 23.302 144.698 23.302 144.86 23.302C145.028 23.2947 145.193 23.291 145.355 23.291C145.516 23.2837 145.637 23.28 145.718 23.28H147.676C147.764 23.28 147.888 23.2837 148.05 23.291C148.218 23.291 148.383 23.2947 148.545 23.302C148.713 23.302 148.842 23.302 148.93 23.302H150.184L150.91 25.546H149.535C149.447 25.546 149.311 25.5497 149.128 25.557C148.944 25.557 148.761 25.5607 148.578 25.568C148.402 25.568 148.27 25.568 148.182 25.568H145.124ZM165.717 18.484C165.717 19.1733 165.589 19.7893 165.332 20.332C165.076 20.8747 164.735 21.3293 164.309 21.696C163.891 22.0627 163.437 22.3303 162.945 22.499C163.334 22.631 163.66 22.873 163.924 23.225C164.188 23.577 164.401 23.9803 164.562 24.435L165.409 26.723C165.556 27.1263 165.71 27.4527 165.871 27.702C166.04 27.944 166.227 28.1493 166.432 28.318C166.256 28.5747 165.989 28.78 165.629 28.934C165.277 29.088 164.922 29.165 164.562 29.165C164.042 29.165 163.66 29.0257 163.418 28.747C163.184 28.4683 162.967 28.054 162.769 27.504L161.79 24.798C161.636 24.3433 161.413 23.9583 161.119 23.643C160.833 23.3277 160.368 23.17 159.722 23.17H157.126V21.014C157.434 20.9993 157.797 20.9883 158.215 20.981C158.641 20.9663 159.048 20.9553 159.436 20.948C159.832 20.9333 160.148 20.926 160.382 20.926C161.042 20.926 161.548 20.8087 161.9 20.574C162.252 20.332 162.494 20.024 162.626 19.65C162.758 19.276 162.824 18.8873 162.824 18.484C162.824 18.0587 162.758 17.6627 162.626 17.296C162.494 16.9293 162.252 16.6287 161.9 16.394C161.548 16.1593 161.042 16.042 160.382 16.042C160.199 16.042 159.986 16.042 159.744 16.042C159.502 16.042 159.253 16.042 158.996 16.042C158.747 16.0347 158.505 16.0273 158.27 16.02V29C158.043 29.044 157.805 29.0697 157.555 29.077C157.306 29.0917 157.079 29.099 156.873 29.099C156.683 29.099 156.459 29.0917 156.202 29.077C155.946 29.0697 155.707 29.044 155.487 29V14.095L155.63 13.952C156.503 13.93 157.35 13.9117 158.171 13.897C158.993 13.8823 159.796 13.875 160.58 13.875C161.6 13.875 162.494 14.0437 163.264 14.381C164.034 14.7183 164.636 15.2317 165.068 15.921C165.501 16.603 165.717 17.4573 165.717 18.484ZM180.379 21.487C180.379 22.345 180.32 23.17 180.203 23.962C180.093 24.7467 179.866 25.48 179.521 26.162C179.184 26.844 178.678 27.4563 178.003 27.999C177.673 28.263 177.277 28.4793 176.815 28.648C176.353 28.8093 175.88 28.9267 175.396 29C174.919 29.0733 174.483 29.11 174.087 29.11C173.478 29.11 172.906 29.1063 172.371 29.099C171.836 29.0917 171.293 29.0807 170.743 29.066C170.2 29.0513 169.61 29.0367 168.972 29.022L168.829 28.879V14.095L168.972 13.952C169.603 13.93 170.189 13.9117 170.732 13.897C171.282 13.8823 171.825 13.875 172.36 13.875C172.903 13.875 173.478 13.875 174.087 13.875C174.483 13.875 174.923 13.9117 175.407 13.985C175.891 14.0583 176.364 14.1757 176.826 14.337C177.288 14.4983 177.68 14.711 178.003 14.975C178.67 15.5177 179.173 16.1337 179.51 16.823C179.855 17.505 180.086 18.242 180.203 19.034C180.32 19.8187 180.379 20.6363 180.379 21.487ZM177.486 21.487C177.486 20.8637 177.446 20.2367 177.365 19.606C177.292 18.9753 177.138 18.396 176.903 17.868C176.668 17.3327 176.324 16.9037 175.869 16.581C175.422 16.2583 174.824 16.097 174.076 16.097C173.658 16.097 173.258 16.0933 172.877 16.086C172.503 16.0787 172.085 16.075 171.623 16.075V26.888C172.085 26.8807 172.503 26.8807 172.877 26.888C173.258 26.888 173.658 26.888 174.076 26.888C174.824 26.888 175.422 26.7267 175.869 26.404C176.324 26.074 176.668 25.645 176.903 25.117C177.138 24.5817 177.292 23.9987 177.365 23.368C177.446 22.73 177.486 22.103 177.486 21.487ZM181.903 14.128C182.138 14.0253 182.387 13.9483 182.651 13.897C182.915 13.8383 183.172 13.809 183.421 13.809C183.905 13.809 184.257 13.9153 184.477 14.128C184.697 14.3407 184.855 14.7403 184.95 15.327L186.149 22.092C186.222 22.5027 186.299 22.9793 186.38 23.522C186.468 24.0573 186.552 24.5817 186.633 25.095C186.714 25.6083 186.776 26.041 186.82 26.393C186.842 26.525 186.864 26.602 186.886 26.624C186.908 26.646 186.952 26.657 187.018 26.657L189.196 14.282C189.467 14.2307 189.768 14.1977 190.098 14.183C190.435 14.161 190.736 14.15 191 14.15C191.286 14.15 191.594 14.161 191.924 14.183C192.254 14.1977 192.547 14.2307 192.804 14.282L194.795 26.393C194.817 26.5177 194.843 26.5947 194.872 26.624C194.909 26.646 194.956 26.657 195.015 26.657C195.066 26.2317 195.136 25.744 195.224 25.194C195.312 24.644 195.4 24.094 195.488 23.544C195.583 22.9867 195.668 22.4953 195.741 22.07L197.259 13.974C197.464 13.93 197.677 13.9043 197.897 13.897C198.124 13.8823 198.333 13.875 198.524 13.875C198.737 13.875 198.964 13.8897 199.206 13.919C199.448 13.941 199.664 13.985 199.855 14.051L199.998 14.216L196.94 28.978C196.61 29.022 196.21 29.055 195.741 29.077C195.272 29.099 194.854 29.11 194.487 29.11C194.069 29.11 193.699 29.0367 193.376 28.89C193.061 28.736 192.859 28.373 192.771 27.801L191.836 22.356C191.711 21.5787 191.576 20.7133 191.429 19.76C191.282 18.7993 191.154 17.8973 191.044 17.054H190.89C190.765 17.8973 190.626 18.7957 190.472 19.749C190.318 20.695 190.168 21.564 190.021 22.356L188.811 28.989C188.466 29.0257 188.074 29.055 187.634 29.077C187.201 29.099 186.798 29.11 186.424 29.11C185.984 29.11 185.599 29.0367 185.269 28.89C184.946 28.736 184.726 28.3657 184.609 27.779L181.903 14.128ZM205.217 13.974C205.444 13.9447 205.716 13.9227 206.031 13.908C206.346 13.886 206.618 13.875 206.845 13.875C207.072 13.875 207.344 13.886 207.659 13.908C207.974 13.9227 208.238 13.9483 208.451 13.985L213.302 28.824C213.104 28.934 212.855 29.0183 212.554 29.077C212.253 29.1357 211.96 29.165 211.674 29.165C211.234 29.165 210.889 29.066 210.64 28.868C210.391 28.6627 210.178 28.263 210.002 27.669L207.923 20.838C207.732 20.2073 207.527 19.5107 207.307 18.748C207.094 17.9853 206.907 17.285 206.746 16.647H206.625C206.515 17.1823 206.365 17.791 206.174 18.473C205.983 19.155 205.818 19.738 205.679 20.222L202.951 29.022C202.782 29.066 202.595 29.0917 202.39 29.099C202.185 29.1137 201.972 29.121 201.752 29.121C201.525 29.121 201.283 29.1063 201.026 29.077C200.777 29.0477 200.564 29.0037 200.388 28.945L200.3 28.802L205.217 13.974ZM205.151 25.568C205.063 25.568 204.927 25.568 204.744 25.568C204.568 25.5607 204.388 25.557 204.205 25.557C204.029 25.5497 203.897 25.546 203.809 25.546H202.423L203.292 23.302H204.513C204.601 23.302 204.726 23.302 204.887 23.302C205.056 23.2947 205.221 23.291 205.382 23.291C205.543 23.2837 205.664 23.28 205.745 23.28H207.703C207.791 23.28 207.916 23.2837 208.077 23.291C208.246 23.291 208.411 23.2947 208.572 23.302C208.741 23.302 208.869 23.302 208.957 23.302H210.211L210.937 25.546H209.562C209.474 25.546 209.338 25.5497 209.155 25.557C208.972 25.557 208.788 25.5607 208.605 25.568C208.429 25.568 208.297 25.568 208.209 25.568H205.151ZM225.745 18.484C225.745 19.1733 225.616 19.7893 225.36 20.332C225.103 20.8747 224.762 21.3293 224.337 21.696C223.919 22.0627 223.464 22.3303 222.973 22.499C223.361 22.631 223.688 22.873 223.952 23.225C224.216 23.577 224.428 23.9803 224.59 24.435L225.437 26.723C225.583 27.1263 225.737 27.4527 225.899 27.702C226.067 27.944 226.254 28.1493 226.46 28.318C226.284 28.5747 226.016 28.78 225.657 28.934C225.305 29.088 224.949 29.165 224.59 29.165C224.069 29.165 223.688 29.0257 223.446 28.747C223.211 28.4683 222.995 28.054 222.797 27.504L221.818 24.798C221.664 24.3433 221.44 23.9583 221.147 23.643C220.861 23.3277 220.395 23.17 219.75 23.17H217.154V21.014C217.462 20.9993 217.825 20.9883 218.243 20.981C218.668 20.9663 219.075 20.9553 219.464 20.948C219.86 20.9333 220.175 20.926 220.41 20.926C221.07 20.926 221.576 20.8087 221.928 20.574C222.28 20.332 222.522 20.024 222.654 19.65C222.786 19.276 222.852 18.8873 222.852 18.484C222.852 18.0587 222.786 17.6627 222.654 17.296C222.522 16.9293 222.28 16.6287 221.928 16.394C221.576 16.1593 221.07 16.042 220.41 16.042C220.226 16.042 220.014 16.042 219.772 16.042C219.53 16.042 219.28 16.042 219.024 16.042C218.774 16.0347 218.532 16.0273 218.298 16.02V29C218.07 29.044 217.832 29.0697 217.583 29.077C217.333 29.0917 217.106 29.099 216.901 29.099C216.71 29.099 216.486 29.0917 216.23 29.077C215.973 29.0697 215.735 29.044 215.515 29V14.095L215.658 13.952C216.53 13.93 217.377 13.9117 218.199 13.897C219.02 13.8823 219.823 13.875 220.608 13.875C221.627 13.875 222.522 14.0437 223.292 14.381C224.062 14.7183 224.663 15.2317 225.096 15.921C225.528 16.603 225.745 17.4573 225.745 18.484ZM228.834 14.117L228.988 13.974H231.584V16.284C231.584 16.592 231.588 16.8523 231.595 17.065C231.603 17.2777 231.606 17.5343 231.606 17.835V25.414C231.606 25.6413 231.603 25.854 231.595 26.052C231.588 26.2427 231.584 26.4627 231.584 26.712V29.033H230.44C229.942 29.033 229.549 28.8827 229.263 28.582C228.977 28.2813 228.834 27.8707 228.834 27.35V14.117ZM236.853 20.277C236.905 20.453 236.941 20.651 236.963 20.871C236.993 21.0837 237.007 21.267 237.007 21.421C237.007 21.5823 236.993 21.7693 236.963 21.982C236.941 22.1947 236.905 22.3927 236.853 22.576H233.025C232.849 22.576 232.615 22.576 232.321 22.576C232.035 22.5687 231.738 22.565 231.43 22.565C231.13 22.5577 230.866 22.554 230.638 22.554V20.299C230.866 20.299 231.13 20.299 231.43 20.299C231.738 20.2917 232.035 20.288 232.321 20.288C232.615 20.2807 232.849 20.277 233.025 20.277H236.853ZM238.085 13.974C238.129 14.1793 238.155 14.3773 238.162 14.568C238.177 14.7513 238.184 14.9237 238.184 15.085C238.184 15.239 238.166 15.4333 238.129 15.668C238.093 15.9027 238.034 16.1263 237.953 16.339H233.025C232.849 16.339 232.615 16.339 232.321 16.339C232.035 16.3317 231.738 16.328 231.43 16.328C231.13 16.3207 230.866 16.3133 230.638 16.306V13.974H238.085ZM238.569 26.668C238.569 27.482 238.441 28.0797 238.184 28.461C237.935 28.8423 237.444 29.033 236.71 29.033H230.638V26.767C231.042 26.745 231.43 26.723 231.804 26.701C232.186 26.679 232.622 26.668 233.113 26.668H238.569Z"
    fill="#3C3C3C"/>
  <g clip-path="url(#clip0_16802_32)">
    <path fill-rule="evenodd" clip-rule="evenodd"
          d="M25.2692 28.4C24.5682 28.4 24 28.9683 24 29.6692V36.73C24 37.4313 23.4303 38.0049 22.7312 37.9489C19.204 37.6662 15.8562 36.2201 13.2247 33.8189C10.2794 31.1312 8.44375 27.4407 8.07735 23.4703C7.71094 19.4999 8.8402 15.5358 11.2439 12.3545C13.5129 9.3515 16.7632 7.25035 20.4171 6.40853C20.8251 6.31454 21.2489 6.44896 21.545 6.74499L24 9.2H32C34.1189 9.2 36.1513 10.0407 37.6512 11.5375C39.151 13.0343 39.9957 15.065 40 17.184V31.616C39.9957 33.3106 39.3196 34.9344 38.1198 36.1311C36.92 37.3279 35.2946 38 33.6 38V34.8C34.4487 34.8 35.2626 34.4629 35.8627 33.8627C36.4628 33.2626 36.8 32.4487 36.8 31.6C36.8 30.7513 36.4628 29.9374 35.8627 29.3373C35.2626 28.7371 34.4487 28.4 33.6 28.4H27.2H25.2692ZM32.8 20.4C33.4365 20.4 34.0469 20.1471 34.497 19.6971C34.9471 19.247 35.2 18.6365 35.2 18C35.2 17.3635 34.9471 16.753 34.497 16.3029C34.0469 15.8529 33.4365 15.6 32.8 15.6C32.1635 15.6 31.553 15.8529 31.1029 16.3029C30.6528 16.753 30.4 17.3635 30.4 18C30.4 18.6365 30.6528 19.247 31.1029 19.6971C31.553 20.1471 32.1635 20.4 32.8 20.4Z"
          fill="#3C3C3C"/>
    <circle cx="16" cy="15.2308" r="1.84615" fill="=#399419"/>
    <circle cx="18.4615" cy="27.5385" r="1.84615" fill="#399419"/>
    <path d="M9.23077 31.8461H17.1923C17.8933 31.8461 18.4615 31.2779 18.4615 30.5769V27.5385" stroke="#399419"
          stroke-width="1.26923"/>
    <path d="M6.76923 9.69231H14.7308C15.4317 9.69231 16 10.2606 16 10.9615V14" stroke="#399419" stroke-width="1.26923"/>
    <path d="M14.1538 22.6154H7.38461" stroke="#399419" stroke-width="1.26923"/>
    <circle cx="14.7692" cy="22.6154" r="1.84615" fill="#399419"/>
  </g>
  <defs>
    <clipPath id="clip0_16802_32">
      <rect width="32" height="32" fill="#399419" transform="translate(8 6)"/>
    </clipPath>
  </defs>
</svg>
