<svg width="187" height="140" viewBox="0 0 187 140" fill="none" xmlns="http://www.w3.org/2000/svg">
<path d="M91.6561 134.47L8.19785 85.1434C5.54161 83.6527 3.2615 81.2008 5.85274 79.5987L89.6128 31.3033C90.8713 30.5231 92.7799 30.0123 94.0569 30.7553L181.643 81.6095C184.3 83.1512 184.778 87.4606 182.108 89.007L102.657 134.391C100.989 135.359 99.0963 135.875 97.1671 135.889C95.2379 135.903 93.3385 135.414 91.6561 134.47Z" fill="#D9616F"/>
<path style="mix-blend-mode:multiply" opacity="0.63" d="M119.259 76.2273L109.256 82.7286L128.189 95.1879C128.356 95.1879 129.949 99.6042 128.686 95.1879C136.441 90.911 136.928 94.5842 142.441 91.1803C134.142 85.4685 125.296 79.9563 119.259 76.2273Z" fill="url(#paint0_linear_3_709)"/>
<path style="mix-blend-mode:multiply" opacity="0.63" d="M83.757 108.339L74.2372 112.695L93.1699 125.154C93.3371 125.154 94.9299 129.571 93.6668 125.154C101.422 120.877 101.91 124.551 107.422 121.147C99.1186 115.412 89.7939 112.068 83.757 108.339Z" fill="url(#paint1_linear_3_709)"/>
<path d="M102.42 66.4939L93.964 70.5665C93.6453 70.7197 93.3743 70.9568 93.1802 71.2524C92.9861 71.548 92.8762 71.8909 92.8623 72.2442C92.8485 72.5976 92.9312 72.948 93.1016 73.2579C93.272 73.5678 93.5236 73.8253 93.8294 74.003L113.872 85.696C114.305 85.9494 114.819 86.0257 115.307 85.9089C115.796 85.7921 116.22 85.4912 116.491 85.0691L121.362 77.4951" fill="#56403D"/>
<path d="M148.426 46.9111L80.98 8.05183C80.5174 7.7853 79.9928 7.64521 79.4589 7.64566C78.9251 7.64611 78.4007 7.78707 77.9385 8.05438C77.4764 8.32169 77.0928 8.70593 76.8262 9.16849C76.5596 9.63104 76.4194 10.1556 76.4198 10.6895V51.0905C76.4196 51.5345 76.5361 51.9708 76.7578 52.3556C76.9796 52.7403 77.2986 53.0599 77.6829 53.2824L149.578 94.7978C149.825 94.9407 150.104 95.0165 150.389 95.0176C150.674 95.0187 150.954 94.9451 151.202 94.8042C151.449 94.6632 151.656 94.4598 151.8 94.2143C151.945 93.9687 152.022 93.6896 152.025 93.4047V53.1338C152.025 51.8717 151.693 50.632 151.061 49.5395C150.429 48.4471 149.52 47.5405 148.426 46.9111Z" fill="#399419"/>
<path d="M80.9893 11.1074L146.383 48.7222C147.082 49.124 147.663 49.7032 148.066 50.4011C148.47 51.099 148.682 51.891 148.682 52.6972V83.0026C148.681 83.2925 148.604 83.5772 148.459 83.8281C148.314 84.0791 148.105 84.2875 147.854 84.4327C147.603 84.5779 147.319 84.6548 147.029 84.6557C146.739 84.6565 146.454 84.5813 146.202 84.4375L79.5079 46.1727C79.2618 46.0318 79.0567 45.8292 78.9126 45.5849C78.7684 45.3407 78.6904 45.0631 78.686 44.7796V12.417C78.69 12.1494 78.7638 11.8874 78.9001 11.657C79.0364 11.4267 79.2305 11.2359 79.4632 11.1036C79.6959 10.9713 79.9591 10.9021 80.2268 10.9028C80.4944 10.9034 80.7573 10.974 80.9893 11.1074Z" fill="white"/>
<path d="M108.5 68.263C109.271 68.1146 109.758 67.2798 109.588 66.3983C109.418 65.5169 108.656 64.9226 107.885 65.071C107.115 65.2194 106.628 66.0543 106.797 66.9357C106.967 67.8172 107.729 68.4114 108.5 68.263Z" fill="#AB643C"/>
<path d="M159.353 72.7863L140.086 62.2077C139.716 62.0041 139.408 61.7049 139.193 61.3414C138.978 60.9779 138.865 60.5635 138.865 60.1412V24.8391C138.865 24.425 138.974 24.0182 139.181 23.6595C139.388 23.3009 139.686 23.003 140.044 22.7959C140.403 22.5889 140.81 22.4798 141.224 22.4798C141.638 22.4798 142.045 22.5888 142.403 22.7959L161.671 33.941C162.029 34.148 162.327 34.4459 162.534 34.8046C162.741 35.1632 162.85 35.5701 162.85 35.9842V70.7523C162.844 71.1596 162.733 71.5584 162.528 71.9101C162.322 72.2618 162.029 72.5542 161.677 72.759C161.325 72.9638 160.926 73.0739 160.519 73.0787C160.112 73.0835 159.71 72.9827 159.353 72.7863Z" fill="#A2C609"/>
<path d="M158.183 48.1974V56.6537C158.183 59.1103 154.366 59.115 154.366 56.6537V48.1974C154.366 45.7408 158.183 45.7362 158.183 48.1974Z" fill="#56403D"/>
<path d="M152.996 39.5228V53.1663C152.996 55.6228 149.179 55.6275 149.179 53.1663V39.5228C149.179 37.0662 152.996 37.0616 152.996 39.5228Z" fill="#FFA197"/>
<path d="M146.848 29.6362V50.5797C146.848 53.0362 143.03 53.0409 143.03 50.5797V29.6362C143.03 27.1796 146.848 27.175 146.848 29.6362Z" fill="#F2F2F2"/>
<path d="M151.598 59.0221L156.316 61.5019C156.985 61.8548 156.39 62.8671 155.722 62.5142L150.994 60.0344C150.335 59.6861 150.925 58.6692 151.598 59.0221Z" fill="#F2F2F2"/>
<path d="M143.323 58.3905C147.713 60.7434 152.148 63.0095 156.627 65.189C157.305 65.5187 156.711 66.5311 156.033 66.2014C151.553 64.0343 147.118 61.7681 142.728 59.4029C142.064 59.0592 142.636 58.0469 143.323 58.3905Z" fill="#F2F2F2"/>
<path d="M56.8834 22.559V30.5696C56.8834 30.9455 56.9821 31.3149 57.1695 31.6409C57.3569 31.9668 57.6265 32.2379 57.9514 32.4271L85.5402 48.4714C85.8633 48.664 86.2313 48.7685 86.6074 48.7744C86.9835 48.7804 87.3546 48.6875 87.6836 48.5051C88.0126 48.3228 88.288 48.0573 88.4823 47.7352C88.6766 47.4131 88.783 47.0457 88.7908 46.6696L88.9998 38.7752C89.0105 38.389 88.9169 38.0071 88.729 37.6696C88.541 37.3321 88.2656 37.0515 87.9317 36.8573L60.1154 20.7015C59.7887 20.5113 59.4177 20.4105 59.0396 20.4094C58.6615 20.4083 58.2899 20.507 57.9621 20.6954C57.6343 20.8837 57.362 21.1552 57.1726 21.4824C56.9832 21.8096 56.8834 22.181 56.8834 22.559Z" fill="#A2C609"/>
<path d="M127.311 53.3659L96.1977 35.0926C92.9471 33.1701 90.9224 38.9377 94.5445 40.9438C105.564 47.4219 116.333 53.6306 127.293 60.0391L127.311 53.3659Z" fill="#399419"/>
<path d="M134.124 57.3689L127.311 53.3659V60.0437L132.145 62.8764C135.41 64.799 137.388 59.2914 134.124 57.3689Z" fill="#399419"/>
<path d="M130.937 60.1509C131.62 59.9367 131.929 58.9834 131.627 58.0217C131.325 57.06 130.527 56.4541 129.844 56.6683C129.162 56.8825 128.853 57.8358 129.154 58.7975C129.456 59.7592 130.254 60.3651 130.937 60.1509Z" stroke="white" stroke-width="1.015" stroke-miterlimit="10"/>
<path d="M131.37 59.858L133.144 61.7248" stroke="white" stroke-width="1.015" stroke-miterlimit="10"/>
<path d="M100.656 50.0317C99.7698 49.7588 98.9981 49.2024 98.4592 48.4482C97.6073 47.2667 97.1417 45.8506 97.1264 44.3941C97.0242 41.1435 98.905 38.4547 101.306 38.3572C101.941 38.3586 102.567 38.515 103.129 38.8128C103.69 39.1106 104.171 39.5408 104.529 40.0661C105.379 41.2419 105.846 42.6509 105.866 44.1016C105.936 45.5501 105.558 46.985 104.784 48.2113C104.46 48.7573 104.008 49.2161 103.466 49.5478C102.925 49.8796 102.311 50.0744 101.677 50.1153C101.335 50.1391 100.99 50.1109 100.656 50.0317ZM101.97 39.8154C101.769 39.7592 101.561 39.7342 101.352 39.7411C99.6991 39.7921 98.3709 41.919 98.4499 44.3848C98.4669 45.5518 98.8395 46.6859 99.518 47.6355C99.7304 48.0096 100.041 48.3187 100.416 48.5294C100.791 48.74 101.217 48.8443 101.647 48.8309C102.077 48.8175 102.495 48.687 102.857 48.4534C103.218 48.2199 103.509 47.8921 103.697 47.5055C104.321 46.5058 104.621 45.3383 104.556 44.1619C104.54 42.9949 104.167 41.8607 103.488 40.9113C103.12 40.3793 102.586 39.9842 101.97 39.7875V39.8154Z" fill="#F15A24"/>
<path d="M108.504 58.8224C108.605 58.7683 108.691 58.6891 108.753 58.5923C108.814 58.4955 108.85 58.3844 108.857 58.2698L103.66 48.7129L102.485 49.3351L107.529 58.9199C107.854 59.0149 108.204 58.9799 108.504 58.8224Z" fill="#F15A24"/>
<path d="M77.8501 109.254C77.8501 109.254 81.384 107.68 82.2338 107.619C83.0836 107.559 84.5093 107.852 83.2647 109.412C83.2647 109.412 79.5497 111.845 79.0528 111.92C78.5559 111.994 77.3718 111.622 77.3392 111.752C77.3067 111.882 77.1999 112.82 77.1999 112.82C77.1999 112.82 74.0886 114.009 73.9493 111.924C73.9493 111.655 74.4137 107.796 74.4137 107.796" fill="#34323D"/>
<path d="M85.6145 113.717L87.8574 114.52C87.9253 114.728 88.0471 114.913 88.2102 115.059C88.3734 115.204 88.5721 115.303 88.7862 115.347C88.8652 115.44 88.976 115.501 89.0973 115.518C90.0261 115.658 90.8805 115.361 91.7629 115.087C92.8356 114.752 97.0289 113.145 95.868 116.155C95.1017 116.693 94.2473 117.158 93.4625 117.636C93.0213 117.905 92.5802 118.17 92.1297 118.421C91.8897 118.584 91.6246 118.706 91.3449 118.783C90.7412 118.876 89.2784 118.421 89.2413 118.574C89.2041 118.727 89.0695 119.884 89.0695 119.884C89.0695 119.884 85.2523 121.342 85.0851 118.783C85.0526 118.458 85.6145 113.717 85.6145 113.717Z" fill="#34323D"/>
<path d="M89.845 81.3773C89.5663 79.1297 89.2382 76.8898 88.8605 74.6577C88.7908 74.2537 88.749 72.4705 88.3961 72.1919C88.3961 72.1919 85.1455 69.5496 82.5356 68.9041L82.257 67.7756L82.2292 67.8035C82.2292 66.689 80.6271 65.946 80.0698 67.1348C79.0233 69.4426 78.2262 71.8556 77.6922 74.3327C76.938 78.0078 76.4492 81.7325 76.2294 85.4778C75.9504 88.6063 75.4852 91.7154 74.8362 94.7886C73.9075 99.4741 73.9075 104.048 74.2697 108.78C74.2697 108.78 75.1009 111.32 78.881 109.862L79.0017 108.808C79.1085 108.77 79.2021 108.702 79.2713 108.612C79.3404 108.523 79.3823 108.415 79.3918 108.302C80.0048 101.675 81.5419 91.8537 82.8839 85.3384C82.9861 87.0009 82.8236 91.7051 82.9257 93.3676C82.9257 93.5905 82.9536 94.1942 82.9722 94.4171C83.4365 101.875 83.7198 109.152 84.3003 116.605C87.198 117.789 88.3775 117.241 90.1747 115.402C90.7273 104.016 91.2428 92.7267 89.845 81.3773Z" fill="#399419"/>
<path d="M107.259 51.3923C107.247 51.3164 107.22 51.2438 107.178 51.1788C107.137 51.1139 107.083 51.058 107.02 51.0145C106.956 50.9711 106.885 50.941 106.809 50.9261C106.734 50.9112 106.656 50.9119 106.581 50.928C106.571 50.8452 106.539 50.7666 106.489 50.7004C106.438 50.6342 106.371 50.5829 106.293 50.5518C106.143 50.4991 105.979 50.4991 105.829 50.5518C105.78 50.3959 105.672 50.2657 105.527 50.1896C105.383 50.1251 105.222 50.1075 105.067 50.1391C104.912 50.1708 104.771 50.2501 104.663 50.3661C104.627 50.2957 104.574 50.2357 104.508 50.1918C104.442 50.1479 104.366 50.1216 104.287 50.1153C103.823 50.0828 103.688 50.5797 103.707 50.9419C103.674 51.1694 103.642 51.4063 103.618 51.6988C103.419 50.8165 103.716 51.7731 103.409 50.914C103.224 50.3986 102.272 50.9372 102.323 51.4248C102.478 52.4401 102.531 53.4685 102.481 54.4944C102.478 54.5594 102.489 54.6243 102.513 54.6848L102.095 55.2188C101.97 55.3767 101.845 55.5207 101.733 55.6832L101.612 55.7946C101.557 55.8384 101.514 55.8955 101.488 55.9605C101.461 56.0255 101.451 56.0963 101.459 56.1661C101.426 56.2547 101.403 56.3466 101.389 56.4401C101.386 56.471 101.386 56.5021 101.389 56.533C101.269 56.7188 101.139 56.9045 101.018 57.0949C100.974 57.1593 100.947 57.2336 100.939 57.3112C100.932 57.3888 100.944 57.467 100.974 57.5387C101.005 57.6104 101.053 57.6732 101.114 57.7215C101.175 57.7697 101.248 57.8018 101.324 57.8147L101.222 57.8518C100.665 58.0469 101.05 58.8781 101.608 58.6877C102.781 58.2802 103.818 57.5552 104.603 56.5934C104.672 56.5775 104.735 56.5439 104.786 56.4957C104.837 56.4476 104.875 56.3868 104.895 56.3194L104.97 56.1058C105.597 55.2582 106.089 54.3182 106.428 53.3195C106.466 53.1893 106.518 53.0632 106.581 52.9434C106.878 52.5393 107.31 51.8892 107.259 51.3923Z" fill="#FCBF81"/>
<path d="M88.8048 74.0865C88.9055 73.8312 89.0501 73.5955 89.232 73.39C89.6506 72.6483 90.0034 71.8714 90.2862 71.0681C91.824 67.5909 92.7659 63.8798 93.0724 60.0902V60.0391C93.1344 59.3611 93.1761 58.6831 93.1978 58.0051C93.2844 57.1163 93.0719 56.224 92.5941 55.4696C92.5248 55.3774 92.4488 55.2904 92.3666 55.2095C91.5446 54.3969 90.2583 54.1554 89.3156 53.5006C88.619 53.0362 87.89 52.4558 87.0402 52.4558C86.3374 52.5042 85.6767 52.8081 85.1826 53.3102C83.6084 54.7266 82.9072 56.8441 82.2663 58.8828L79.4801 67.706C79.3593 68.0868 79.2386 68.4675 79.1271 68.853C81.9088 71.9272 84.6858 74.0772 88.8048 74.0865Z" fill="#8B93FC"/>
<path d="M88.7676 51.5827L88.4844 53.5006C88.4844 53.5006 89.311 55.1399 91.4982 54.7405L91.6189 52.8273" fill="#FCBF81"/>
<path d="M94.0847 46.9854C94.2659 47.1061 94.6049 51.5595 93.1281 53.6817C91.6514 55.8039 88.4843 51.996 88.1175 49.8599C87.7506 47.7237 90.6483 44.6913 94.0847 46.9854Z" fill="#FCBF81"/>
<path d="M93.8433 47.5055C93.7157 47.864 93.4867 48.1777 93.1842 48.4086C92.8816 48.6394 92.5185 48.7774 92.139 48.8057C90.8759 48.8057 89.8543 48.8057 89.7336 49.3212C89.6128 49.8367 91.7815 49.9528 91.3728 51.1369C91.0968 51.9341 90.7141 52.6901 90.2351 53.3845C89.91 53.9232 87.1748 50.979 87.1237 47.5658C87.0727 44.1527 90.119 44.3152 90.2629 44.3152C90.4069 44.3152 90.9409 43.6047 92.3991 43.7812C93.8572 43.9576 94.0569 44.617 94.0569 44.617C94.4303 44.538 94.8194 44.5837 95.1642 44.7474C95.5091 44.911 95.7906 45.1833 95.9655 45.5226C96.8943 46.9482 95.9237 48.6525 94.252 48.8986L93.8433 47.5055Z" fill="#E55600"/>
<path d="M92.3666 55.2235C92.3666 55.2235 94.4238 59.245 96.1234 59.3379C97.823 59.4307 101.64 54.304 101.64 54.304C102.396 54.1357 103.185 54.2109 103.895 54.5187C104.604 54.8265 105.199 55.3512 105.592 56.0175C105.592 56.0175 100.563 63.4151 96.3045 65.607C92.0462 67.7988 87.7042 61.2232 87.7042 61.2232" fill="#8B93FC"/>
<path style="mix-blend-mode:multiply" opacity="0.63" d="M35.7355 78.3913L27.3767 83.0816L38.1503 89.8336H38.4289C42.7848 87.4328 46.6113 88.1201 49.7087 86.2068C45.7058 84.0753 39.4413 81.0058 35.7355 78.3913Z" fill="url(#paint2_linear_3_709)"/>
<path d="M23.4899 70.1532C23.4899 70.1532 22.51 81.7627 28.7002 83.806C34.8904 85.8493 37.9878 79.9238 37.7463 69.6982" fill="#399419"/>
<path d="M30.7475 74.0467C34.6849 73.9216 37.8182 71.9749 37.7458 69.6986C37.6735 67.4223 34.423 65.6784 30.4856 65.8035C26.5482 65.9286 23.415 67.8754 23.4873 70.1517C23.5596 72.428 26.8101 74.1719 30.7475 74.0467Z" fill="#F2696A"/>
<path d="M32.1552 60.7124C32.1552 60.7124 29.2296 56.7605 30.358 53.9278C30.358 53.9278 31.2868 52.1028 32.7264 51.7685C32.7264 51.7685 32.7264 55.6042 34.1195 55.0702C35.5126 54.5362 33.9709 51.0533 33.9709 51.0533C33.9709 51.0533 35.4058 48.9776 37.0451 48.9868C38.6844 48.9961 37.1612 52.5672 38.2803 51.9496C39.3995 51.332 38.2385 48.3692 39.5109 47.9745C40.677 47.6679 41.8623 47.4398 43.0588 47.2919C43.0588 47.2919 44.3823 50.7468 43.1842 51.2855C41.9861 51.8242 40.2122 52.0517 41.0898 52.7947C41.9675 53.5378 44.3684 52.5765 44.3684 52.5765C44.3684 52.5765 44.582 54.5362 43.7832 55.4138C42.9845 56.2915 38.076 54.564 38.9862 56.2265C39.8964 57.889 43.0774 56.9417 43.0774 56.9417C43.0774 56.9417 41.5124 59.3379 39.6224 60.4709C37.7324 61.604 32.1552 60.7124 32.1552 60.7124Z" fill="#8CCC00"/>
<path d="M33.1304 70.7941C33.1304 70.7941 31.0453 68.8623 31.389 67.1348C31.389 67.1348 31.7326 65.997 32.5035 65.6581C32.5035 65.6581 32.9028 67.836 33.6458 67.3855C34.3888 66.9351 33.1443 65.124 33.1443 65.124C33.1443 65.124 33.7341 63.7913 34.6721 63.6241C35.6102 63.4569 35.1365 65.6441 35.6891 65.1751C36.2417 64.7061 35.2851 63.1458 35.9631 62.7882C36.5923 62.4897 37.2408 62.2337 37.9042 62.022C37.9042 62.022 39.0233 63.8423 38.4011 64.2742C37.7788 64.7061 36.7943 65.0265 37.3748 65.3516C37.9553 65.6766 39.2323 64.8872 39.2323 64.8872C39.2323 64.8872 39.562 65.9785 39.2045 66.5589C38.8469 67.1394 35.8749 66.6843 36.5668 67.5341C37.2587 68.384 38.9676 67.5016 38.9676 67.5016C38.5931 68.386 38.0541 69.1912 37.3794 69.8746C36.4042 70.7012 33.1304 70.7941 33.1304 70.7941Z" fill="#8CCC00"/>
<path d="M25.561 66.7168C25.561 66.7168 20.6572 67.0651 18.874 64.5853C18.874 64.5853 17.843 62.8021 18.326 61.4276C18.326 61.4276 21.5488 63.5033 21.8553 62.0266C22.1618 60.5499 18.4049 59.9787 18.4049 59.9787C18.4049 59.9787 17.4251 57.6568 18.3167 56.2637C19.2083 54.8705 21.4002 58.0933 21.4791 56.8116C21.5581 55.5299 18.4374 54.9263 18.7857 53.6353C19.1529 52.4877 19.5966 51.366 20.1138 50.2778C20.1138 50.2778 23.7406 51.0162 23.5503 52.3164C23.3599 53.6167 22.5983 55.2374 23.6989 54.8937C24.7994 54.5501 25.2731 52.01 25.2731 52.01C25.2731 52.01 27.0424 52.883 27.3535 54.0254C27.6646 55.1677 23.5688 58.3812 25.4588 58.5066C27.3489 58.632 28.2451 55.4371 28.2451 55.4371C28.2451 55.4371 29.4246 58.0469 29.3643 60.248C29.3039 62.4492 25.561 66.7168 25.561 66.7168Z" fill="#8CCC00"/>
<path d="M42.0604 48.8754C41.5527 49.3336 41.0434 49.798 40.5326 50.2685C40.5697 49.7113 40.6162 49.154 40.6858 48.5968C40.723 48.3042 40.2725 48.1928 40.2214 48.4853C40.1286 49.2283 40.0635 49.9744 40.0264 50.7236C38.689 51.9728 37.3609 53.2824 36.1349 54.6616C35.9952 53.7241 35.9362 52.7764 35.9584 51.8288C35.9584 51.5316 35.4941 51.5456 35.4941 51.8288C35.4705 52.9176 35.5514 54.0061 35.7355 55.0795C34.9556 55.987 34.2269 56.9373 33.553 57.9261C32.7199 56.8494 32.1362 55.6011 31.844 54.2715C31.779 53.9789 31.3379 54.1182 31.3797 54.4108C31.6955 55.8265 32.3309 57.1512 33.2372 58.2837C33.2507 58.2996 33.2664 58.3137 33.2836 58.3255C31.3332 61.2836 30.033 64.5714 30.033 68.3375C30.033 68.6347 30.4973 68.6208 30.4973 68.3375C30.4973 64.7154 31.7419 61.5344 33.6133 58.6738C35.5028 59.1107 37.4507 59.2377 39.3809 59.0499C39.6781 59.0221 39.6642 58.5577 39.3809 58.5856C37.5484 58.7639 35.6992 58.6526 33.9012 58.2558C34.8422 56.8948 35.8821 55.605 37.0126 54.3969H37.0544C38.141 54.4572 39.2277 54.5222 40.305 54.5269C40.9897 54.604 41.6827 54.5015 42.3158 54.2297C42.5805 54.0857 42.3158 53.6956 42.0697 53.835C41.3313 54.2343 40.2772 54.0718 39.4738 54.0486C38.7865 54.0486 38.0806 53.9928 37.4073 53.9557C39.0094 52.2654 40.7323 50.705 42.3994 49.1772C42.6223 48.9915 42.2833 48.6757 42.0604 48.8754Z" fill="#06577A"/>
<path d="M27.9665 58.3627C27.9812 58.3011 27.971 58.2362 27.9379 58.1822C27.9048 58.1282 27.8516 58.0895 27.79 58.0747C27.7284 58.06 27.6635 58.0703 27.6095 58.1034C27.5555 58.1364 27.5169 58.1896 27.5021 58.2512C27.0617 59.9777 26.0725 61.5145 24.6833 62.6303C24.1106 61.1876 23.5827 59.7279 23.0998 58.2512C24.1843 57.0995 25.0638 55.7708 25.7003 54.3226C25.821 54.0486 25.4124 53.8257 25.2916 54.0997C24.7061 55.4307 23.9095 56.6585 22.9326 57.7358C22.3614 56.0686 21.897 54.3365 21.4837 52.6044C21.4141 52.3118 20.9683 52.4511 21.0194 52.7437C21.589 55.112 22.2732 57.4432 23.0719 59.7372C22.1916 59.5937 21.3323 59.3426 20.5132 58.9896C20.2392 58.8735 20.0163 59.2775 20.2903 59.3982C21.2466 59.8177 22.256 60.1036 23.2902 60.248C23.8288 61.7619 24.4233 63.2526 25.0595 64.7247C23.6602 64.7279 22.2726 64.4696 20.9683 63.9631C20.6943 63.8563 20.4667 64.2649 20.7454 64.3717C22.1722 64.9315 23.6941 65.2091 25.2266 65.189C26.0315 67.0249 26.9092 68.8298 27.8597 70.6037C28.0036 70.8684 28.3937 70.6037 28.2544 70.3576C26.9834 68.0015 25.8439 65.5768 24.8412 63.0947C26.3802 61.9088 27.48 60.2437 27.9665 58.3627Z" fill="#06577A"/>
<path d="M36.5621 64.0977L35.364 66.285C35.2006 66.0812 35.0575 65.8619 34.9368 65.6302C34.7975 65.3655 34.4074 65.6302 34.5421 65.8763C34.6976 66.1722 34.8861 66.4495 35.104 66.7029L33.8037 69.0712C33.6428 68.929 33.5361 68.7353 33.5019 68.5233C33.4554 68.2307 32.9911 68.2447 33.0375 68.5233C33.0929 68.89 33.2854 69.2219 33.5762 69.452L31.9369 72.4101C31.9074 72.4643 31.9005 72.528 31.918 72.5873C31.9354 72.6465 31.9756 72.6963 32.0298 72.7259C32.084 72.7555 32.1477 72.7623 32.2069 72.7449C32.2661 72.7274 32.316 72.6872 32.3456 72.633L34.5049 68.7322C34.8883 68.7267 35.268 68.6577 35.6287 68.5279C35.9074 68.4258 35.7727 67.98 35.4894 68.0635C35.2582 68.1444 35.0181 68.1974 34.7743 68.2214L36.9615 64.2696C36.9637 64.2224 36.9515 64.1756 36.9265 64.1355C36.9014 64.0955 36.8647 64.064 36.8213 64.0453C36.7779 64.0266 36.7299 64.0217 36.6835 64.031C36.6372 64.0404 36.5949 64.0637 36.5621 64.0977Z" fill="#06577A"/>
<defs>
<linearGradient id="paint0_linear_3_709" x1="134.346" y1="93.0193" x2="115.938" y2="81.5352" gradientUnits="userSpaceOnUse">
<stop stop-color="white" stop-opacity="0"/>
<stop offset="1" stop-color="#9E005D"/>
</linearGradient>
<linearGradient id="paint1_linear_3_709" x1="94.1915" y1="124.411" x2="87.2259" y2="108.892" gradientUnits="userSpaceOnUse">
<stop stop-color="white" stop-opacity="0"/>
<stop offset="1" stop-color="#9E005D"/>
</linearGradient>
<linearGradient id="paint2_linear_3_709" x1="40.3979" y1="88.7702" x2="36.2138" y2="79.4455" gradientUnits="userSpaceOnUse">
<stop stop-color="white" stop-opacity="0"/>
<stop offset="1" stop-color="#9E005D"/>
</linearGradient>
</defs>
</svg>
