<svg width="33" height="32" viewBox="0 0 33 32" fill="none" xmlns="http://www.w3.org/2000/svg">
<path d="M27.5138 20.5067C25.8225 20.5067 24.1862 20.24 22.66 19.76C22.1787 19.6 21.6425 19.72 21.2712 20.08L19.1125 22.7067C15.2212 20.9067 11.5775 17.5067 9.63875 13.6L12.32 11.3867C12.6912 11.0133 12.8012 10.4933 12.65 10.0267C12.1412 8.54667 11.88 6.96 11.88 5.32C11.88 4.6 11.2613 4 10.5188 4H5.76125C5.01875 4 4.125 4.32 4.125 5.32C4.125 17.7067 14.7538 28 27.5138 28C28.49 28 28.875 27.16 28.875 26.4267V21.8267C28.875 21.1067 28.2563 20.5067 27.5138 20.5067Z" fill="#3C3C3C"/>
</svg>
