<svg width="310" height="234" viewBox="0 0 310 234" fill="none" xmlns="http://www.w3.org/2000/svg">
<path d="M102.137 52.6705C102.137 52.6705 103.207 61.8371 104.067 63.9406C104.927 66.044 107.81 75.2029 107.81 75.2029C107.81 75.2029 109.887 78.1368 109.089 78.5249C108.291 78.913 107.035 76.2662 107.035 76.2662L103.16 75.2184C103.16 75.2184 99.7038 66.0362 98.8978 64.0259C98.0918 62.0156 96.906 53.7571 96.906 53.7571" fill="#FFC8A9"/>
<path d="M150.567 223.88L11.284 141.434C6.851 138.942 3.04575 134.852 7.37025 132.159L147.157 51.4364C149.257 50.1324 152.442 49.2786 154.574 50.5205L300.785 135.543C305.218 138.12 306.016 145.323 301.56 147.907L168.95 223.748C166.162 225.37 163 226.236 159.776 226.259C156.552 226.282 153.378 225.462 150.567 223.88Z" fill="#8383EA"/>
<path style="mix-blend-mode:multiply" opacity="0.63" d="M88.9158 144.88L60.45 163.571L144.088 217.22L178.126 196.139C173.135 192.895 93.9223 148.047 88.9158 144.88Z" fill="url(#paint0_linear_17_27)"/>
<path style="mix-blend-mode:multiply" opacity="0.63" d="M265.05 137.6L247.798 147.69L262.725 156.414L279.922 147.17C275.001 143.964 270.049 140.735 265.05 137.6Z" fill="url(#paint1_linear_17_27)"/>
<path d="M188.093 80.6439C188.348 80.1006 183.822 86.7213 182.737 87.125C180.784 87.8468 173.771 91.9295 170.407 91.9062C170.655 93.0627 173.259 94.2347 173.507 95.3912C175.452 96.1674 183.264 92.8764 186.364 91.5724C189.046 90.4392 193.246 84.7266 193.246 84.7266L188.093 80.6439Z" fill="#F2C3BD"/>
<path d="M272.025 129.178C268.065 128.837 263.895 127.626 260.973 124.925V136.676C260.973 139.912 262.257 143.016 264.542 145.304C266.827 147.592 269.925 148.878 273.156 148.878C276.388 148.878 279.486 147.592 281.771 145.304C284.056 143.016 285.339 139.912 285.339 136.676V124.762C281.154 126.423 276.435 129.566 272.025 129.178Z" fill="#399419"/>
<path d="M273.126 131.313C279.854 131.313 285.309 128.418 285.309 124.847C285.309 121.276 279.854 118.382 273.126 118.382C266.397 118.382 260.943 121.276 260.943 124.847C260.943 128.418 266.397 131.313 273.126 131.313Z" fill="#5ED18D"/>
<path d="M273.126 125.949C273.126 125.949 264.841 124.731 262.647 111.311C262.655 111.311 269.7 115.215 273.126 125.949Z" fill="#5ED18D"/>
<path d="M274.35 124.242C274.35 124.242 264.849 107.166 274.35 95.7017C277.249 104.994 277.249 114.95 274.35 124.242Z" fill="#5ED18D"/>
<path d="M273.126 113.507C273.126 113.507 264.841 112.289 262.647 98.8685C262.655 98.8685 269.7 102.773 273.126 113.507Z" fill="#5ED18D"/>
<path d="M274.133 118.971C274.133 118.971 272.025 110.853 283.572 103.642C283.572 103.642 282.704 111.675 274.133 118.971Z" fill="#5ED18D"/>
<path d="M273.126 131.313C279.854 131.313 285.309 128.418 285.309 124.847C285.309 121.276 279.854 118.382 273.126 118.382C266.397 118.382 260.943 121.276 260.943 124.847C260.943 128.418 266.397 131.313 273.126 131.313Z" fill="#146666"/>
<path d="M273.126 125.949C273.126 125.949 264.841 124.731 262.647 111.311C262.655 111.311 269.7 115.215 273.126 125.949Z" fill="#5ED18D"/>
<path d="M274.35 124.242C274.35 124.242 264.849 107.166 274.35 95.7017C277.249 104.994 277.249 114.95 274.35 124.242Z" fill="#5ED18D"/>
<path d="M273.126 113.507C273.126 113.507 264.841 112.289 262.647 98.8685C262.655 98.8685 269.7 102.773 273.126 113.507Z" fill="#5ED18D"/>
<path d="M274.133 118.971C274.133 118.971 272.025 110.853 283.572 103.642C283.572 103.642 282.704 111.675 274.133 118.971Z" fill="#5ED18D"/>
<path d="M198.446 157.02C197.765 157.931 197.022 158.794 196.222 159.604C194.557 160.712 192.817 161.703 191.014 162.569C190.324 162.849 189.363 163.19 189.363 164.292C189.363 165.395 190.813 166.427 192.874 166.295C194.936 166.163 198.656 165.053 199.555 164.091C200.454 163.128 200.864 163.058 200.864 163.058C200.864 163.058 204.445 163.834 205.514 162.988C206.289 162.352 205.716 158.875 205.398 157.33C204.277 157.744 203.085 157.93 201.891 157.876C200.697 157.823 199.526 157.532 198.446 157.02Z" fill="#F3A05E"/>
<path d="M221.728 166.761C221.769 168.04 221.638 169.319 221.34 170.564C220.891 171.852 218.186 177.076 218.635 177.782C219.052 178.331 219.629 178.736 220.285 178.943C220.941 179.15 221.646 179.149 222.301 178.939C223.975 178.357 226.548 176.556 226.997 175.136C227.447 173.715 227.641 170.432 227.966 169.4C228.14 168.372 228.14 167.323 227.966 166.295L221.728 166.761Z" fill="#F3A05E"/>
<path d="M202.949 110.014C202.949 110.519 205.274 122.247 206.91 125.996C208.545 129.745 213.9 141.838 213.9 141.838C213.9 141.838 220.1 163.687 220.1 166.458C220.1 166.458 224.332 169.392 228.563 166.458C228.563 166.458 227.587 158.145 227.587 155.537C227.587 152.929 223.712 143.305 223.03 140.534C222.348 137.763 217.915 109.355 216.566 106.762C215.218 104.17 202.732 103.976 202.949 110.014Z" fill="#335A6B"/>
<path d="M195.184 103.976V118.001C195.184 124.847 197.788 132.679 197.625 135.45C197.462 138.221 197.625 157.462 197.625 157.462C198.836 158.175 200.215 158.551 201.62 158.551C203.025 158.551 204.404 158.175 205.615 157.462C205.615 157.462 206.894 143.926 207.057 141.481C207.22 139.036 207.057 123.869 207.057 121.098C207.057 118.327 205.809 107.383 202.934 105.031C200.058 102.68 195.184 103.976 195.184 103.976Z" fill="#335A6B"/>
<path d="M200.299 70.2198C200.299 70.2198 196.509 70.15 195.269 71.0504C194.029 71.9507 186.93 80.2248 186.93 80.2248C186.93 80.2248 188.86 84.5713 191.681 86.0926H192.642C192.642 86.0926 193.417 103.828 193.603 104.721C193.603 104.721 193.037 104.667 193.455 105.769C193.874 106.871 196.486 107.321 196.486 107.321C196.486 107.321 209.521 109.859 215.039 107.375L216.589 106.685C216.589 106.685 217.488 104.612 217.279 103.991C216.665 102.93 215.974 101.915 215.21 100.956C215.21 100.956 219.449 88.5376 219.449 83.5623C219.419 80.4246 218.197 77.416 216.031 75.1486C213.962 73.2159 207.281 70.181 207.281 70.181L200.299 70.2198Z" fill="#399419"/>
<path d="M201.02 70.1965L201.128 72.7657C201.128 72.7657 201.523 75.3116 205.352 74.7915C205.352 74.7915 208.312 73.9222 208.173 72.0982C208.173 71.6092 207.785 66.7814 207.785 66.7814" fill="#F2C3BD"/>
<path d="M199.795 62.2563C199.502 62.2454 199.215 62.1762 198.95 62.0527C198.684 61.9292 198.446 61.7539 198.249 61.5371C198.052 61.3202 197.9 61.0662 197.802 60.7899C197.704 60.5135 197.663 60.2204 197.679 59.9277C197.726 57.8088 199.005 56.7532 200.105 56.7532C201.206 56.7532 200.988 54.5876 204.468 54.9447C207.948 55.3017 208.475 56.497 208.475 56.497C208.475 56.497 211.428 56.8929 211.916 59.6017C212.404 62.3106 210.815 65.035 210.288 65.2523C209.761 65.4696 210.157 66.9754 209.056 68.031C208.343 68.6751 207.42 69.0366 206.46 69.0478" fill="#4D4030"/>
<path d="M199.128 61.4723C199.22 62.3496 199.22 63.234 199.128 64.1113C198.958 64.9884 197.842 69.4747 201.609 72.1991C201.609 72.1991 205.375 72.7579 207.258 68.3182C207.258 68.3182 207.909 62.6521 207.026 61.9225C206.142 61.1929 205.949 63.0169 204.344 62.6521C202.74 62.2873 200.593 60.898 199.128 61.4723Z" fill="#F2C3BD"/>
<path d="M207.561 64.1424C206.989 64.5546 206.594 65.1669 206.452 65.8577C206.356 65.8633 206.264 65.8988 206.188 65.9593C206.113 66.0198 206.058 66.1023 206.032 66.1952C206.006 66.2882 206.009 66.3871 206.041 66.4783C206.073 66.5694 206.133 66.6482 206.212 66.7038C206.731 67.0608 207.537 66.7038 208.002 66.3933C208.282 66.2302 208.511 65.9935 208.666 65.7088C208.82 65.4241 208.894 65.1024 208.878 64.7788C208.859 64.6349 208.804 64.498 208.719 64.3804C208.634 64.2628 208.521 64.1682 208.39 64.1051C208.26 64.042 208.116 64.0124 207.971 64.0189C207.826 64.0254 207.685 64.0678 207.561 64.1424Z" fill="#F2C3BD"/>
<path d="M207.499 64.1113C207.499 64.1113 206.948 66.859 206.53 67.1539C206.111 67.4489 205.251 68.52 204.515 68.3337C204.386 68.2919 204.266 68.2289 204.158 68.1474C203.441 67.5282 202.58 67.0986 201.655 66.8978C200.547 66.8047 199.539 67.1695 199.26 66.8512C199.05 66.5016 198.91 66.1139 198.85 65.7102C198.85 65.7102 198.788 68.815 199.152 69.855C199.318 70.5485 199.683 71.1782 200.202 71.6664C200.722 72.1546 201.372 72.4801 202.074 72.6027C202.89 72.7551 203.733 72.6685 204.501 72.3533C205.27 72.038 205.931 71.5075 206.406 70.8253C207.7 68.8771 207.7 64.7944 207.7 64.7944L207.499 64.1113Z" fill="#4D4030"/>
<path style="mix-blend-mode:multiply" opacity="0.63" d="M83.359 125.864L54.033 140.51L68.4635 150.29L93.837 135.69C88.877 132.485 88.35 129 83.359 125.864Z" fill="url(#paint2_linear_17_27)"/>
<path d="M91.6205 91.8596C91.6205 91.8596 92.1165 103.952 92.3955 107.663C92.6745 111.373 92.5273 128.581 92.5273 128.581C91.4373 129.032 90.2476 129.188 89.0785 129.031C86.986 128.806 84.9633 111.66 84.9865 109.331C85.0098 107.003 81.7858 94.3589 81.7703 89.2051C81.7548 84.0513 84.2968 77.9428 88.2183 78.6181C92.1398 79.2933 91.6205 91.8596 91.6205 91.8596Z" fill="#EFB497"/>
<path d="M82.4678 96.9436C82.4678 96.9436 81.9098 109.036 81.8555 112.754C81.8013 116.472 80.4605 132.655 80.4605 132.655C78.9803 133.105 77.4219 133.234 75.888 133.036C75.888 133.036 74.2605 116.635 74.4155 113.399C74.524 111.07 72.447 98.5736 72.8655 93.4431C73.284 88.3125 76.3685 82.4446 80.2125 83.4614C84.0565 84.4782 82.4678 96.9436 82.4678 96.9436Z" fill="#FFC8A9"/>
<path d="M95.573 134.542C93.8448 132.423 92.814 127.556 92.814 127.556C92.814 127.556 92.8838 127.463 92.6823 127.222C92.5064 127.6 92.2206 127.916 91.8624 128.127C91.5041 128.339 91.0902 128.438 90.675 128.41C88.8615 128.27 88.8693 125.988 87.451 125.515C87.3735 125.662 87.3038 125.825 87.2185 126.011C86.5288 127.564 87.0713 136.443 87.0713 136.443L89.5048 137.639L89.2723 134.798C89.2723 134.798 89.9155 136.303 90.5665 137.902C91.2175 139.501 93.4418 140.27 95.7823 141.302C98.1228 142.334 99.355 141.535 99.9053 139.75C100.456 137.965 97.3013 136.653 95.573 134.542Z" fill="#473E39"/>
<path d="M92.442 104.659C93.0233 87.6761 93.4108 71.0504 93.4108 71.0504C93.4108 71.0504 79.05 63.9328 75.0898 67.4334C73.5431 72.1016 72.6562 76.9636 72.4548 81.878C72.2145 86.0849 72.0363 96.1985 72.013 107.104C78.8795 110.604 86.862 110.146 92.442 104.659Z" fill="#847066"/>
<path d="M94.4492 62.7375C95.0702 60.1282 95.9022 57.574 96.937 55.0999C98.6575 50.6369 99.882 46.2205 99.5952 41.5091C99.53 41.0174 99.3317 40.5531 99.0217 40.1663C96.5572 37.5506 91.1632 38.156 91.1632 38.156C90.4203 38.1007 89.6742 38.1007 88.9312 38.156C88.9338 38.2609 88.8971 38.3629 88.8282 38.4419C88.7593 38.521 88.6633 38.5713 88.5592 38.5829C82.3592 39.2814 80.3985 45.9721 79.577 51.2501C79.019 54.836 78.9027 58.5384 77.6085 61.9691C76.8936 63.768 76.0465 65.5115 75.0742 67.185C76.8567 68.5045 84.9167 73.8756 93.1472 70.1345C93.6045 67.6973 93.93 65.198 94.4492 62.7375Z" fill="#A2C609"/>
<path d="M98.611 39.7937C98.611 39.7937 103.563 43.5737 102.742 53.99C102.742 53.99 98.0297 55.162 96.3867 55.1542" fill="#A2C609"/>
<path d="M82.212 57.801L80.0343 48.2696L79.453 50.5981C79.459 50.6393 79.459 50.6811 79.453 50.7223C79.1275 53.2914 78.0503 58.127 77.9495 58.8799L77.4458 63.1256L81.9408 59.788L82.212 57.801Z" fill="#89A000"/>
<path d="M98.518 34.9581V35.0047C98.3181 35.1063 98.1533 35.2659 98.0453 35.4626C97.2005 36.9529 96.4023 38.4742 95.6273 39.9955C95.0014 39.8828 94.4036 39.6481 93.868 39.3047C92.9461 38.7527 92.1763 37.979 91.6283 37.0538L92.6203 32.2182L98.518 34.9581Z" fill="#F9B495"/>
<path d="M103.594 28.5159C103.726 28.8263 99.4325 39.0486 97.154 38.1482C94.8755 37.2479 91.6437 33.204 92.8217 29.0747C93.9997 24.9455 101.773 24.1305 103.594 28.5159Z" fill="#FFC8A9"/>
<path d="M99.8588 23.4552C86.366 19.8693 80.7628 46.7405 80.7628 46.7405C81.8555 41.0201 87.389 38.8157 87.389 38.8157L87.482 47.4235C89.5125 46.1428 92.566 46.3136 93.9998 44.5827L94.1393 34.4381C94.1393 34.4381 92.5273 31.5352 94.023 31.3334C95.5188 31.1316 95.7823 32.8857 95.7823 32.8857L97.0998 29.5715L103.656 32.2182C103.656 32.2182 108.105 25.644 99.8588 23.4552Z" fill="#8E4228"/>
<path d="M83.4443 138.104C81.716 135.985 80.6853 131.119 80.6853 131.119C80.6853 131.119 80.755 131.025 80.5535 130.785C80.3836 131.17 80.1003 131.494 79.7416 131.713C79.3828 131.932 78.9658 132.036 78.5463 132.011C76.7328 131.872 76.7405 129.59 75.3223 129.116C75.2448 129.264 75.175 129.427 75.0898 129.613C74.4 131.165 74.9425 140.045 74.9425 140.045L77.376 141.24L77.1435 138.399C77.1435 138.399 77.7868 139.905 78.4378 141.504C79.0888 143.103 81.313 143.871 83.6535 144.904C85.994 145.936 87.2263 145.136 87.7765 143.351C88.3268 141.566 85.1725 140.223 83.4443 138.104Z" fill="#473E39"/>
<path d="M168.973 180.398L187.79 170.603V147.636L168.973 158.603V180.398Z" fill="#399419"/>
<path d="M146.932 144.888L168.779 157.547L168.547 157.951L187.403 146.968L165.323 134.177L146.932 144.888Z" fill="#399419"/>
<path d="M165.323 133.276L184.047 122.371L164.463 111.039L145.762 121.936L165.323 133.276Z" fill="#399419"/>
<path d="M188.17 146.495L206.925 135.628C206.816 135.551 206.708 135.473 206.592 135.403L184.853 122.829L166.129 133.742L188.17 146.495Z" fill="#399419"/>
<path d="M142.693 98.4571L128.836 90.447C127.674 89.7753 126.357 89.4217 125.015 89.4217C123.674 89.4217 122.356 89.7753 121.195 90.447L106.284 99.0703L124 109.339L142.693 98.4571Z" fill="#399419"/>
<path d="M125.829 133.556L124.992 134.037V155.328L145.816 167.389V145.136L125.829 133.556Z" fill="#399419"/>
<path d="M144.22 121.944L124.023 110.24L105.625 120.951L125.821 132.655L144.22 121.944Z" fill="#399419"/>
<path d="M168.237 158.13L146.591 145.587V167.84L168.198 180.359V158.153L168.237 158.13Z" fill="#399419"/>
<path d="M146.165 144.446L164.556 133.727L144.987 122.387L126.596 133.106L146.165 144.446Z" fill="#399419"/>
<path d="M125.054 133.106L105.082 121.533V143.786L124.217 154.877V133.595L125.054 133.106Z" fill="#399419"/>
<path d="M104.315 121.083L87.3968 111.28L87.7843 110.604L104.834 120.501L123.225 109.789L105.493 99.5128L88.4275 109.393C87.3661 110.005 86.5641 110.984 86.1717 112.145C85.7793 113.307 85.8236 114.572 86.2963 115.704V119.088C86.2872 119.264 86.2872 119.44 86.2963 119.616V132.904L104.315 143.343V121.083Z" fill="#399419"/>
<path d="M144.987 121.494L163.688 110.597L143.468 98.9073L124.79 109.789L144.987 121.494Z" fill="#399419"/>
<path d="M146.591 168.74V185.738H145.816V168.29L124.992 156.22V173.909L164.928 197.885C165.937 198.483 167.044 198.896 168.198 199.104V181.252L146.591 168.74Z" fill="#399419"/>
<path d="M187.782 171.48L168.95 181.267V199.22C171.059 199.451 173.187 198.997 175.018 197.924L188.495 189.961H187.782V171.48Z" fill="#399419"/>
<path d="M188.557 189.961L204.236 180.716C205.404 180.027 206.382 179.056 207.081 177.891C207.779 176.727 208.176 175.406 208.235 174.049L208.824 160.536L188.557 171.076V189.961Z" fill="#399419"/>
<path d="M209.312 146.378L209.11 139.874C209.122 139.177 208.991 138.485 208.724 137.842C208.458 137.198 208.061 136.616 207.56 136.133L188.557 147.186V170.199L208.862 159.635L209.304 146.378" fill="#399419"/>
<path d="M105.082 144.686V161.917H105.013L124.217 173.444V155.77L105.082 144.686Z" fill="#399419"/>
<path d="M86.2963 133.796V146.991C86.2968 148.117 86.5883 149.223 87.1424 150.203C87.6965 151.182 88.4944 152.001 89.4583 152.58L104.315 161.498V144.236L86.2963 133.796Z" fill="#399419"/>
<g style="mix-blend-mode:multiply">
<path d="M168.973 180.398L187.79 170.603V147.636L168.973 158.603V180.398Z" fill="#399419"/>
</g>
<path d="M146.932 144.888L168.779 157.547L168.547 157.951L187.403 146.968L165.323 134.177L146.932 144.888Z" fill="#399419"/>
<path d="M165.323 133.276L184.047 122.371L164.463 111.039L145.762 121.936L165.323 133.276Z" fill="#399419"/>
<g style="mix-blend-mode:multiply">
<path d="M188.17 146.495L206.925 135.628C206.816 135.551 206.708 135.473 206.592 135.403L184.853 122.829L166.129 133.742L188.17 146.495Z" fill="#399419"/>
</g>
<path d="M142.693 98.4571L128.836 90.447C127.674 89.7753 126.357 89.4217 125.015 89.4217C123.674 89.4217 122.356 89.7753 121.195 90.447L106.284 99.0703L124 109.339L142.693 98.4571Z" fill="#399419"/>
<path d="M125.829 133.556L124.992 134.037V155.328L145.816 167.389V145.136L125.829 133.556Z" fill="#399419"/>
<path d="M144.22 121.944L124.023 110.24L105.625 120.951L125.821 132.655L144.22 121.944Z" fill="#399419"/>
<g style="mix-blend-mode:multiply">
<path d="M168.237 158.13L146.591 145.587V167.84L168.198 180.359V158.153L168.237 158.13Z" fill="#399419"/>
</g>
<g style="mix-blend-mode:multiply">
<path d="M146.165 144.446L164.556 133.727L144.987 122.387L126.596 133.106L146.165 144.446Z" fill="#399419"/>
</g>
<g style="mix-blend-mode:multiply">
<path d="M125.054 133.106L105.082 121.533V143.786L124.217 154.877V133.595L125.054 133.106Z" fill="#399419"/>
</g>
<g style="mix-blend-mode:multiply">
<path d="M105.516 99.5128L88.4275 109.393C88.0079 109.642 87.6268 109.951 87.296 110.309C87.4471 110.422 87.605 110.526 87.7688 110.62L104.819 120.516L123.225 109.789L105.516 99.5128Z" fill="#399419"/>
</g>
<g style="mix-blend-mode:multiply">
<path d="M144.987 121.494L163.688 110.597L143.468 98.9073L124.79 109.789L144.987 121.494Z" fill="#399419"/>
</g>
<path d="M146.591 168.74V185.738H146.475V186.817L164.912 197.885C165.921 198.483 167.029 198.896 168.183 199.104V181.252L146.591 168.74Z" fill="#399419"/>
<g style="mix-blend-mode:multiply">
<path d="M145.7 184.302C145.699 184.255 145.707 184.208 145.725 184.164C145.742 184.12 145.768 184.08 145.801 184.046V168.29L124.977 156.22V173.909L145.7 186.328V184.302Z" fill="#399419"/>
</g>
<path d="M187.782 171.48L168.95 181.267V199.22C171.059 199.451 173.187 198.997 175.018 197.924L188.495 189.961H187.782V171.48Z" fill="#399419"/>
<g style="mix-blend-mode:multiply">
<path d="M188.557 189.961L204.236 180.716C205.404 180.027 206.382 179.056 207.081 177.891C207.779 176.727 208.176 175.406 208.235 174.049L208.824 160.536L188.557 171.076V189.961Z" fill="#399419"/>
</g>
<path d="M209.312 146.378L209.11 139.874C209.122 139.177 208.991 138.485 208.724 137.842C208.458 137.198 208.061 136.616 207.56 136.133L188.557 147.186V170.199L208.862 159.635L209.304 146.378" fill="#399419"/>
<path d="M105.082 144.686V161.917H105.013L124.217 173.444V155.77L105.082 144.686Z" fill="#399419"/>
<g style="mix-blend-mode:multiply">
<path d="M86.2963 133.796V146.991C86.2968 148.117 86.5883 149.223 87.1424 150.203C87.6965 151.182 88.4944 152.001 89.4583 152.58L104.315 161.498V144.236L86.2963 133.796Z" fill="#399419"/>
</g>
<path d="M145.816 185.738H146.591V168.74L145.816 168.29V185.738Z" fill="#FFEED9"/>
<path d="M146.932 144.888L165.323 134.177L164.556 133.727L146.165 144.446L146.932 144.888Z" fill="#FFEED9"/>
<path d="M145.816 145.136V167.389L146.591 167.84V145.587L145.816 145.136Z" fill="#FFEED9"/>
<path d="M166.098 133.727L184.822 122.814L184.047 122.371L165.323 133.276L166.098 133.727Z" fill="#FFEED9"/>
<path d="M145.762 121.936L164.463 111.039L163.688 110.597L144.987 121.494L145.762 121.936Z" fill="#FFEED9"/>
<path d="M124.217 155.77V173.444L124.992 173.909V156.22L124.217 155.77Z" fill="#FFEED9"/>
<path d="M125.829 133.556L125.054 133.106L124.217 133.595V154.877L124.992 155.328V134.037L125.829 133.556Z" fill="#FFEED9"/>
<path d="M126.596 133.106L144.987 122.387L144.22 121.944L125.821 132.655L126.596 133.106Z" fill="#FFEED9"/>
<path d="M104.307 161.917H105.013L104.307 161.49V161.917Z" fill="#FFEED9"/>
<path d="M124.023 110.239L123.248 109.789L104.857 120.508L105.625 120.951L124.023 110.239Z" fill="#FFEED9"/>
<path d="M124.791 109.789L143.468 98.9073L142.693 98.4572L124.016 109.339L124.791 109.789Z" fill="#FFEED9"/>
<path d="M105.082 144.686L104.307 144.236V161.49L105.013 161.917H105.082V144.686Z" fill="#FFEED9"/>
<path d="M105.082 121.533L104.307 121.083V143.336L105.082 143.786V121.533Z" fill="#FFEED9"/>
<path d="M125.821 132.655L105.625 120.951L105.082 121.269V121.533L125.054 133.106L125.821 132.655Z" fill="#FFEED9"/>
<path d="M146.591 145.587L168.237 158.13L168.392 158.044L168.547 157.951L168.78 157.547L146.932 144.888L146.591 145.09V145.587Z" fill="#FFEED9"/>
<path d="M146.165 144.446L126.596 133.106L125.829 133.556L145.816 145.136V144.64L146.165 144.446Z" fill="#FFEED9"/>
<path d="M104.858 120.508L87.7765 110.612L87.389 111.28L104.307 121.083V120.819L104.858 120.508Z" fill="#FFEED9"/>
<path d="M145.816 144.64V145.136L146.591 145.587V145.09L146.932 144.888L146.165 144.446L145.816 144.64Z" fill="#FFEED9"/>
<path d="M125.821 132.655L125.054 133.106L125.829 133.556L126.596 133.106L125.821 132.655Z" fill="#FFEED9"/>
<path d="M105.082 121.269L105.625 120.951L104.858 120.508L104.307 120.819V121.083L105.082 121.533V121.269Z" fill="#FFEED9"/>
<path d="M168.175 199.275H168.95C168.686 199.275 168.431 199.205 168.175 199.158V199.275Z" fill="#FFEED9"/>
<path d="M168.578 181.477L168.392 181.368L168.198 181.26V199.112C168.454 199.158 168.71 199.205 168.973 199.228V181.267L168.578 181.477Z" fill="#FFEED9"/>
<path d="M168.392 158.223L168.237 158.13L168.198 158.153V180.359L168.593 180.592L168.973 180.398V158.603L187.79 147.636V147.193L187.403 146.968L168.547 157.951L168.392 158.223Z" fill="#FFEED9"/>
<path d="M188.557 146.743V147.193L207.537 136.133C207.346 135.949 207.142 135.78 206.925 135.628L188.17 146.495L188.557 146.743Z" fill="#FFEED9"/>
<path d="M168.237 158.13L168.392 158.223L168.547 157.951L168.392 158.044L168.237 158.13Z" fill="#FFEED9"/>
<path d="M188.565 189.992V189.953L188.495 189.992H188.565Z" fill="#FFEED9"/>
<path d="M124.015 109.339L106.291 99.0626L105.516 99.5127L123.248 109.789L124.015 109.339Z" fill="#FFEED9"/>
<path d="M187.79 171.48V189.992H188.495L188.565 189.953V171.076L187.79 171.48Z" fill="#FFEED9"/>
<path d="M164.556 133.727L165.323 133.276L145.762 121.936L144.987 122.387L164.556 133.727Z" fill="#FFEED9"/>
<path d="M187.79 170.603L188.565 170.199V147.185L187.79 147.636V170.603Z" fill="#FFEED9"/>
<path d="M144.22 121.944L144.987 121.494L124.791 109.789L124.023 110.239L144.22 121.944Z" fill="#FFEED9"/>
<path d="M187.403 146.968L188.17 146.518L166.098 133.727L165.323 134.177L187.403 146.968Z" fill="#FFEED9"/>
<path d="M165.323 134.177L166.098 133.727L165.323 133.276L164.556 133.727L165.323 134.177Z" fill="#FFEED9"/>
<path d="M144.987 122.387L145.762 121.936L144.987 121.494L144.22 121.944L144.987 122.387Z" fill="#FFEED9"/>
<path d="M124.791 109.789L124.016 109.339L123.248 109.789L124.023 110.239L124.791 109.789Z" fill="#FFEED9"/>
<path d="M188.17 146.518L187.403 146.968L187.79 147.193V147.636L188.565 147.186V146.743L188.17 146.518Z" fill="#FFEED9"/>
<path d="M104.307 143.336L86.2963 132.896V133.796L104.307 144.236V143.336Z" fill="#FFEED9"/>
<path d="M168.973 180.398V181.267L187.79 171.48V170.603L168.973 180.398Z" fill="#FFEED9"/>
<path d="M188.565 171.076L208.824 160.528L208.862 159.635L188.565 170.199V171.076Z" fill="#FFEED9"/>
<path d="M105.082 143.786V144.686L124.217 155.77V154.877L105.082 143.786Z" fill="#FFEED9"/>
<path d="M146.591 167.84V168.74L168.198 181.26V180.359L146.591 167.84Z" fill="#FFEED9"/>
<path d="M124.992 155.328V156.22L145.816 168.29V167.389L124.992 155.328Z" fill="#FFEED9"/>
<path d="M145.816 167.389V168.29L146.591 168.74V167.84L145.816 167.389Z" fill="#FFEED9"/>
<path d="M124.217 154.877V155.77L124.992 156.22V155.328L124.217 154.877Z" fill="#FFEED9"/>
<path d="M104.307 143.336V144.236L105.082 144.686V143.786L104.307 143.336Z" fill="#FFEED9"/>
<path d="M168.593 180.592L168.198 180.359V181.26L168.392 181.368L168.578 181.477L168.973 181.267V180.398L168.593 180.592Z" fill="#FFEED9"/>
<path d="M187.79 171.48L188.565 171.076V170.199L187.79 170.603V171.48Z" fill="#FFEED9"/>
<path d="M156.279 99.994V118.141L170.415 126.236L186.364 116.798V98.6512" fill="#399419"/>
<path d="M156.279 99.994L172.678 90.6488L186.364 98.6512L170.415 108.089L156.279 99.994Z" fill="#399419"/>
<path opacity="0.21" d="M156.279 99.994L172.678 90.6488L186.364 98.6512L170.415 108.089L156.279 99.994Z" fill="white"/>
<g style="mix-blend-mode:multiply">
<path d="M170.415 108.089V126.236L186.364 116.798V98.6512L170.415 108.089Z" fill="#399419"/>
</g>
<path d="M208.723 88.5298C208.723 88.5298 206.886 92.139 205.817 93.1248C204.747 94.1105 193.269 99.2799 192.208 99.6912C191.146 100.103 190.975 100.467 190.402 100.351C189.828 100.235 184.83 100.266 184.582 100.762C184.441 101.106 184.441 101.49 184.582 101.833C184.582 101.833 183.032 102.734 183.35 103.642C183.667 104.55 184.497 106.848 185.892 106.848C187.287 106.848 190.402 104.216 190.65 103.564C190.65 103.564 203.43 102.493 208.723 99.5438C214.016 96.5943 214.838 92.5582 214.838 92.5582C214.334 91.354 213.483 90.3275 212.394 89.61C211.305 88.8924 210.027 88.5164 208.723 88.5298Z" fill="#F2C3BD"/>
<path d="M91.2485 66.4166V84.5636L105.377 92.6591L121.334 83.2208V65.0738" fill="#399419"/>
<path d="M91.2485 66.4166L107.648 57.0714L121.334 65.0738L105.377 74.5199L91.2485 66.4166Z" fill="#399419"/>
<path opacity="0.21" d="M91.2485 66.4166L107.648 57.0714L121.334 65.0738L105.377 74.5199L91.2485 66.4166Z" fill="white"/>
<g style="mix-blend-mode:multiply">
<path d="M105.377 74.5199V92.6591L121.334 83.2208V65.0738L105.377 74.5199Z" fill="#399419"/>
</g>
<path d="M86.1723 53.0741C86.1723 53.0741 86.2498 59.1516 87.2495 61.1696C88.2493 63.1877 93.124 73.4332 93.3565 73.5885C93.589 73.7437 97.8825 76.0024 97.3168 76.8018C96.751 77.6013 94.2168 76.2585 94.2168 76.2585C94.2168 76.2585 97.3168 81.0708 96.069 81.9324C94.8213 82.7939 89.4738 78.0515 89.4428 76.6388C89.4118 75.2262 89.28 73.1383 89.28 73.1383C89.28 73.1383 81.468 62.59 80.8635 60.8048C80.259 59.0196 79.825 52.1349 79.825 52.1349C79.825 52.1349 83.3358 50.2488 86.1723 53.0741Z" fill="#FFC8A9"/>
<path d="M86.583 47.4468L87.141 55.9847C86.366 55.845 79.7863 56.5048 79.6545 56.3107C79.5228 56.1167 80.0343 48.2696 80.0343 48.2696" fill="#A2C609"/>
<defs>
<linearGradient id="paint0_linear_17_27" x1="111.306" y1="191.591" x2="126.426" y2="169.258" gradientUnits="userSpaceOnUse">
<stop stop-color="white" stop-opacity="0"/>
<stop offset="0.99" stop-color="#754C24"/>
</linearGradient>
<linearGradient id="paint1_linear_17_27" x1="258.501" y1="156.127" x2="267.247" y2="142.02" gradientUnits="userSpaceOnUse">
<stop stop-color="white" stop-opacity="0"/>
<stop offset="0.99" stop-color="#754C24"/>
</linearGradient>
<linearGradient id="paint2_linear_17_27" x1="67.642" y1="145.02" x2="83.517" y2="127.619" gradientUnits="userSpaceOnUse">
<stop stop-color="white" stop-opacity="0"/>
<stop offset="0.99" stop-color="#754C24"/>
</linearGradient>
</defs>
</svg>
