<svg width="187" height="140" viewBox="0 0 187 140" fill="none" xmlns="http://www.w3.org/2000/svg">
<path d="M95.5342 130.917L175.282 83.8478C177.821 82.4221 179.997 80.0863 177.523 78.5539L97.4919 32.4921C96.2922 31.7491 94.4694 31.2615 93.2464 31.972L9.54645 80.4903C7.00755 81.9624 6.55185 86.0629 9.08145 87.5489L85.0253 130.834C86.6186 131.759 88.4258 132.253 90.2686 132.267C92.1115 132.282 93.9264 131.817 95.5342 130.917Z" fill="#FFB3A6"/>
<path style="mix-blend-mode:multiply" d="M60.8499 100.626L48.174 107.652C48.174 107.652 60.0175 116.977 65.3325 119.224L78.0223 111.678" fill="url(#paint0_linear_3_761)"/>
<path style="mix-blend-mode:multiply" d="M60.3337 72.5355L47.6578 79.5616C47.6578 79.5616 50.6943 84.3586 56.0278 86.5876L69.7267 79.0415" fill="url(#paint1_linear_3_761)"/>
<path style="mix-blend-mode:multiply" d="M128.898 100.24C128.898 100.24 144.22 91.6726 144.313 91.5286L120.509 79.5616L107.122 87.2796L128.898 100.24Z" fill="url(#paint2_linear_3_761)"/>
<path d="M146.475 65.254L165.912 77.2861C166.09 77.396 166.237 77.5505 166.337 77.7342C166.437 77.9179 166.487 78.1245 166.483 78.3336C166.479 78.5427 166.42 78.7471 166.313 78.9266C166.205 79.1062 166.053 79.2546 165.87 79.3572L136.371 96.0052C135.96 96.2412 135.495 96.3654 135.022 96.3654C134.549 96.3654 134.084 96.2412 133.674 96.0052L114.325 84.6465C112.93 83.4949 113.311 81.7859 114.325 81.2287L143.652 65.2169C144.082 64.9671 144.572 64.8386 145.069 64.8451C145.566 64.8517 146.052 64.993 146.475 65.254Z" fill="#399419"/>
<path d="M146.475 64.4275L165.912 76.4595C166.09 76.5694 166.237 76.7239 166.337 76.9076C166.437 77.0913 166.487 77.2979 166.483 77.507C166.479 77.7161 166.42 77.9205 166.313 78.1001C166.205 78.2796 166.053 78.428 165.87 78.5306L136.375 95.1926C135.965 95.4285 135.5 95.5527 135.027 95.5527C134.553 95.5527 134.088 95.4285 133.678 95.1926L114.33 83.8339C114.103 83.7024 113.914 83.5137 113.784 83.2868C113.653 83.0598 113.584 82.8025 113.584 82.5406C113.584 82.2787 113.653 82.0213 113.784 81.7944C113.914 81.5674 114.103 81.3787 114.33 81.2473L143.657 64.4089C144.085 64.1572 144.572 64.026 145.069 64.0292C145.565 64.0325 146.051 64.1701 146.475 64.4275Z" fill="white"/>
<path d="M145.182 65.0776L164.717 77.3558L135.501 94.0502L115.343 82.2132L145.182 65.0776Z" fill="#606060"/>
<path d="M124.141 88.9467C124.524 88.9467 124.834 88.8011 124.834 88.6216C124.834 88.4421 124.524 88.2965 124.141 88.2965C123.758 88.2965 123.448 88.4421 123.448 88.6216C123.448 88.8011 123.758 88.9467 124.141 88.9467Z" fill="#383097"/>
<path style="mix-blend-mode:multiply" d="M145.903 85.4267C145.903 85.4267 148.447 80.7039 148.461 80.6807L148.023 80.4625L142.62 83.5784L145.903 85.4267Z" fill="url(#paint3_linear_3_761)"/>
<path d="M168.748 68.0078C168.742 67.9741 168.742 67.9394 168.748 67.9057C168.483 67.7671 168.198 67.6715 167.902 67.6224L149.767 78.4331C149.767 78.4331 148.679 79.2829 150.697 80.43L169.107 69.5031C169.089 68.9857 168.967 68.4772 168.748 68.0078Z" fill="#CCCCCC"/>
<path d="M149.73 78.4285C149.73 78.4285 147.619 80.7875 147.582 80.9408C147.545 81.094 150.637 80.4253 150.637 80.4253" fill="#CCCCCC"/>
<path d="M169.04 69.5068C169.374 69.3145 169.395 68.7282 169.088 68.1974C168.782 67.6665 168.262 67.3921 167.929 67.5845C167.595 67.7768 167.573 68.3631 167.88 68.8939C168.187 69.4248 168.706 69.6992 169.04 69.5068Z" fill="#F2F2F2"/>
<path d="M77.1016 63.3501L84.7183 67.014C85.0046 67.1522 85.2478 67.3655 85.422 67.6311C85.5961 67.8967 85.6947 68.2046 85.7071 68.5219C85.7195 68.8391 85.6453 69.1537 85.4925 69.4321C85.3396 69.7105 85.1138 69.9421 84.8392 70.1022L66.7833 80.6203C66.3929 80.8475 65.9299 80.9154 65.4906 80.8098C65.0514 80.7043 64.6699 80.4334 64.4257 80.0538L60.0408 73.2507" fill="#56403D"/>
<path d="M35.6562 45.7316L96.4131 10.7777C96.8298 10.5369 97.3028 10.4101 97.7842 10.4099C98.2657 10.4098 98.7387 10.5365 99.1555 10.7771C99.5724 11.0177 99.9183 11.3639 100.159 11.7806C100.399 12.1973 100.525 12.6699 100.524 13.1507V49.5116C100.523 49.9107 100.418 50.3028 100.218 50.6484C100.018 50.994 99.7306 51.281 99.3844 51.4806L34.6239 88.812C34.4004 88.9409 34.1469 89.0087 33.8888 89.0086C33.6307 89.0085 33.3772 88.9406 33.1538 88.8116C32.9304 88.6826 32.7449 88.4972 32.6161 88.2739C32.4872 88.0506 32.4195 87.7973 32.4198 87.5396V51.318C32.4214 50.1852 32.7212 49.0727 33.2893 48.0922C33.8573 47.1117 34.6736 46.2975 35.6562 45.7316Z" fill="#399419"/>
<path d="M96.4038 13.5269L37.4976 47.3755C36.8684 47.7372 36.3457 48.2582 35.9824 48.886C35.6192 49.5138 35.428 50.2261 35.4284 50.9512V78.2102C35.429 78.4709 35.4982 78.7268 35.6288 78.9524C35.7595 79.1781 35.9471 79.3656 36.1729 79.4962C36.3988 79.6268 36.655 79.696 36.916 79.6969C37.177 79.6978 37.4336 79.6303 37.6603 79.5012L97.7384 45.0721C97.9628 44.9438 98.1494 44.7586 98.2792 44.5351C98.409 44.3117 98.4775 44.058 98.4777 43.7997V14.7389C98.4768 14.4966 98.4127 14.2587 98.2916 14.0487C98.1705 13.8387 97.9967 13.6639 97.7873 13.5415C97.5779 13.4191 97.3401 13.3534 97.0975 13.3508C96.8549 13.3483 96.6158 13.4089 96.4038 13.5269Z" fill="white"/>
<path d="M73.1458 63.7338C73.2988 62.9405 72.8606 62.1893 72.1671 62.0559C71.4736 61.9226 70.7874 62.4576 70.6344 63.2509C70.4815 64.0442 70.9197 64.7954 71.6132 64.9287C72.3066 65.0621 72.9928 64.5271 73.1458 63.7338Z" fill="#AB643C"/>
<path d="M99.3984 79.0693L115.292 88.1386C115.458 88.2344 115.596 88.3722 115.692 88.5381C115.788 88.704 115.838 88.8921 115.838 89.0837C115.838 89.2752 115.788 89.4634 115.692 89.6292C115.596 89.7951 115.458 89.9329 115.292 90.0287L71.145 115.393C70.6097 115.701 70.0028 115.863 69.385 115.863C68.7672 115.863 68.1602 115.701 67.6249 115.393L52.745 106.816C52.5721 106.716 52.4287 106.572 52.329 106.4C52.2292 106.227 52.1767 106.031 52.1767 105.831C52.1767 105.632 52.2292 105.436 52.329 105.263C52.4287 105.091 52.5721 104.947 52.745 104.847L97.4129 79.0786C97.7136 78.9022 98.0556 78.8085 98.4044 78.8069C98.7531 78.8052 99.096 78.8958 99.3984 79.0693Z" fill="#974C26"/>
<path d="M75.3811 93.5301L79.9195 96.2142L76.5529 98.1692C75.6229 97.6166 72.8794 96.0099 72.0006 95.4944L75.3811 93.5301Z" fill="white"/>
<path d="M80.352 90.6463L84.8904 93.3304L80.6263 95.8056C79.8823 95.3737 77.1342 93.753 76.074 93.1307L80.352 90.6463Z" fill="white"/>
<path d="M98.4126 80.1745L103.021 82.8169L98.9195 85.1945C98.2685 84.8183 95.4878 83.1791 94.3671 82.5197L98.4126 80.1745Z" fill="white"/>
<path d="M88.7034 85.7889L93.2418 88.473L89.8752 90.4234C89.08 89.959 86.3412 88.3476 85.3229 87.7486L88.7034 85.7889Z" fill="white"/>
<path d="M93.6742 82.919L98.2126 85.6031L93.93 88.0783C93.4278 87.7904 90.5727 86.1093 89.3776 85.4035L93.6742 82.919Z" fill="white"/>
<path d="M71.3077 95.8938L75.8461 98.5779L72.6237 100.435C71.6565 99.8689 68.9316 98.2668 68.0713 97.7606L71.3077 95.8938Z" fill="white"/>
<path d="M84.63 88.1665L89.1684 90.8506L85.6019 92.9171C84.7649 92.4527 82.0353 90.8228 81.0495 90.2423L84.63 88.1665Z" fill="white"/>
<path d="M67.3785 98.1739L71.9169 100.858L67.6528 103.333C66.76 102.813 64.0398 101.211 63.1005 100.658L67.3785 98.1739Z" fill="white"/>
<path d="M62.403 101.058L66.9414 103.742L59.2922 108.177L54.6793 105.534L62.403 101.058Z" fill="white"/>
<path d="M103.611 83.6017L108.219 86.244L102.263 89.699C101.482 89.2346 98.7427 87.6325 97.7104 87.0241L103.611 83.6017Z" fill="white"/>
<path d="M92.0421 90.3073L96.5805 92.9914L93.2139 94.9464C92.3118 94.4217 89.5915 92.8196 88.6615 92.2716L92.0421 90.3073Z" fill="white"/>
<path d="M83.7 95.1508L88.2384 97.8349L83.9743 100.31C83.1187 99.8131 80.3938 98.2064 79.422 97.6352L83.7 95.1508Z" fill="white"/>
<path d="M87.9687 92.671L92.5071 95.3551L88.9406 97.4216C88.0106 96.8783 85.281 95.2715 84.3882 94.7468L87.9687 92.671Z" fill="white"/>
<path d="M78.7198 98.0346L83.2582 100.719L79.8916 102.674C78.85 102.065 76.1112 100.449 75.3393 99.9989L78.7198 98.0346Z" fill="white"/>
<path d="M74.6464 100.398L79.1848 103.082L75.9624 104.94C74.9022 104.322 72.1587 102.702 71.41 102.265L74.6464 100.398Z" fill="white"/>
<path d="M97.0129 87.4235L101.551 90.1076L97.2873 92.5781C96.613 92.188 93.837 90.5534 92.7349 89.9033L97.0129 87.4235Z" fill="white"/>
<path d="M70.7172 102.678L75.2556 105.362L70.9915 107.838C70.0057 107.262 67.2716 105.655 66.4392 105.163L70.7172 102.678Z" fill="white"/>
<path d="M70.2801 108.246L64.4862 111.604L59.878 108.961L65.7417 105.558L70.2801 108.246Z" fill="white"/>
<path d="M73.6746 107.787L77.0505 109.788L73.1352 112.05L69.7081 110.085L73.6746 107.787Z" fill="white"/>
<path d="M72.3261 112.519L68.9967 114.446L65.565 112.486L68.9548 110.522L72.3261 112.519Z" fill="white"/>
<path d="M109.294 87.1263L112.828 89.0813L108.819 91.4032L105.35 89.411L109.294 87.1263Z" fill="white"/>
<path d="M104.602 89.8476L108.01 91.8676L103.732 94.3474L100.268 92.3599L104.602 89.8476Z" fill="white"/>
<path d="M99.5146 92.7964L102.918 94.8164L77.8642 109.314L74.4279 107.345L99.5146 92.7964Z" fill="white"/>
<path style="mix-blend-mode:multiply" d="M110.698 50.0317L104.188 53.8721C104.188 53.8721 106.197 57.3921 111.163 59.4725L118.724 55.4139" fill="url(#paint4_linear_3_761)"/>
<path d="M115.976 55.7296C119.301 55.7296 121.997 53.8335 121.997 51.4945C121.997 49.1555 119.301 47.2594 115.976 47.2594C112.65 47.2594 109.954 49.1555 109.954 51.4945C109.954 53.8335 112.65 55.7296 115.976 55.7296Z" fill="#399419"/>
<path d="M115.98 50.8351C118.471 50.8351 120.491 50.0097 120.491 48.9915C120.491 47.9733 118.471 47.1479 115.98 47.1479C113.489 47.1479 111.47 47.9733 111.47 48.9915C111.47 50.0097 113.489 50.8351 115.98 50.8351Z" fill="#974C26"/>
<path d="M116.278 49.0333C116.631 48.5364 116.989 48.0163 117.361 47.4312C117.826 46.6835 118.291 45.9219 118.696 45.1325C119.076 44.4346 119.401 43.7079 119.668 42.9592C119.964 42.146 120.202 41.3126 120.379 40.4655C120.426 40.2426 120.463 40.0011 120.505 39.7968C120.505 39.6946 120.505 39.7039 120.505 39.7178C120.505 39.7318 120.505 39.6482 120.505 39.5228C120.547 39.0584 120.574 38.594 120.579 38.1575C120.6 36.5782 120.294 35.0117 119.682 33.5555C118.054 35.9136 116.956 38.5956 116.464 41.4175C116.433 41.5846 116.403 41.7534 116.376 41.9236C116.376 41.9236 116.329 42.2301 116.31 42.3555L116.264 42.7781C116.242 42.9917 116.222 43.2069 116.203 43.4236C116.138 44.2548 116.106 45.0861 116.11 45.9173C116.148 46.9575 116.194 47.9977 116.278 49.0333ZM118.194 36.6065C118.302 36.4827 118.415 36.3619 118.533 36.2443C118.509 36.3513 118.509 36.4623 118.533 36.5694C118.42 36.5633 118.307 36.5759 118.198 36.6065H118.194Z" fill="#999A1C"/>
<path d="M116.394 49.1029C116.427 48.4946 116.441 47.863 116.436 47.1711C116.436 46.2842 116.394 45.4018 116.315 44.5195C116.258 43.7266 116.138 42.9393 115.957 42.1651C115.767 41.3202 115.517 40.49 115.208 39.6807C115.125 39.4671 115.041 39.2581 114.948 39.0491C114.906 38.9516 114.915 38.9609 114.925 38.9748L114.832 38.803C114.618 38.399 114.399 37.9996 114.157 37.6142C113.318 36.2725 112.21 35.1184 110.902 34.2242C110.808 37.0895 111.336 39.9412 112.451 42.5831C112.516 42.7409 112.583 42.8957 112.651 43.0474L112.832 43.4468L113.023 43.8322C113.119 44.0242 113.218 44.2161 113.32 44.4081C113.716 45.1418 114.139 45.8569 114.59 46.5581C115.157 47.4358 115.762 48.281 116.394 49.1029ZM111.279 37.6142C111.304 37.4501 111.333 37.2953 111.367 37.1498C111.399 37.2547 111.453 37.3514 111.526 37.4331C111.435 37.4823 111.352 37.5449 111.279 37.6188V37.6142Z" fill="#999A1C"/>
<path d="M116.422 49.428C116.241 49.089 116.045 48.7454 115.822 48.3692C115.534 47.9048 115.227 47.4405 114.892 46.9761C114.601 46.5674 114.277 46.1823 113.925 45.8244C113.549 45.4292 113.145 45.0614 112.716 44.7238L112.39 44.4591C112.335 44.422 112.344 44.422 112.353 44.4266L112.246 44.3616C112 44.213 111.753 44.0691 111.498 43.939C110.613 43.485 109.644 43.2179 108.652 43.1542C109.527 44.7291 110.732 46.0962 112.186 47.1618L112.446 47.3522L112.67 47.5101L112.897 47.6541L113.246 47.8677C113.696 48.137 114.161 48.3878 114.641 48.62C115.213 48.9218 115.813 49.1865 116.422 49.428ZM109.949 44.8771C109.909 44.7811 109.872 44.6836 109.838 44.5845C109.888 44.6312 109.949 44.6661 110.014 44.6867C109.983 44.7464 109.961 44.8106 109.949 44.8771Z" fill="#999A1C"/>
<path d="M116.278 49.0333C116.631 48.5364 116.989 48.0163 117.361 47.4312C117.826 46.6835 118.291 45.9219 118.696 45.1325C119.076 44.4346 119.401 43.7079 119.668 42.9592C119.964 42.146 120.202 41.3126 120.379 40.4655C120.426 40.2426 120.463 40.0011 120.505 39.7968C120.505 39.6946 120.505 39.7039 120.505 39.7178C120.505 39.7318 120.505 39.6482 120.505 39.5228C120.547 39.0584 120.574 38.594 120.579 38.1575C120.6 36.5782 120.294 35.0117 119.682 33.5555C118.054 35.9136 116.956 38.5956 116.464 41.4175C116.433 41.5846 116.403 41.7534 116.376 41.9236C116.376 41.9236 116.329 42.2301 116.31 42.3555L116.264 42.7781C116.242 42.9917 116.222 43.2069 116.203 43.4236C116.138 44.2548 116.106 45.0861 116.11 45.9173C116.148 46.9575 116.194 47.9977 116.278 49.0333ZM118.194 36.6065C118.302 36.4827 118.415 36.3619 118.533 36.2443C118.509 36.3513 118.509 36.4623 118.533 36.5694C118.42 36.5633 118.307 36.5759 118.198 36.6065H118.194Z" fill="#999A1C"/>
<path d="M116.394 49.1029C116.427 48.4946 116.441 47.863 116.436 47.1711C116.436 46.2842 116.394 45.4018 116.315 44.5195C116.258 43.7266 116.138 42.9393 115.957 42.1651C115.767 41.3202 115.517 40.49 115.208 39.6807C115.125 39.4671 115.041 39.2581 114.948 39.0491C114.906 38.9516 114.915 38.9609 114.925 38.9748L114.832 38.803C114.618 38.399 114.399 37.9996 114.157 37.6142C113.318 36.2725 112.21 35.1184 110.902 34.2242C110.808 37.0895 111.336 39.9412 112.451 42.5831C112.516 42.7409 112.583 42.8957 112.651 43.0474L112.832 43.4468L113.023 43.8322C113.119 44.0242 113.218 44.2161 113.32 44.4081C113.716 45.1418 114.139 45.8569 114.59 46.5581C115.157 47.4358 115.762 48.281 116.394 49.1029ZM111.279 37.6142C111.304 37.4501 111.333 37.2953 111.367 37.1498C111.399 37.2547 111.453 37.3514 111.526 37.4331C111.435 37.4823 111.352 37.5449 111.279 37.6188V37.6142Z" fill="#999A1C"/>
<path d="M116.422 49.428C116.241 49.089 116.045 48.7454 115.822 48.3692C115.534 47.9048 115.227 47.4405 114.892 46.9761C114.601 46.5674 114.277 46.1823 113.925 45.8244C113.549 45.4292 113.145 45.0614 112.716 44.7238L112.39 44.4591C112.335 44.422 112.344 44.422 112.353 44.4266L112.246 44.3616C112 44.213 111.753 44.0691 111.498 43.939C110.613 43.485 109.644 43.2179 108.652 43.1542C109.527 44.7291 110.732 46.0962 112.186 47.1618L112.446 47.3522L112.67 47.5101L112.897 47.6541L113.246 47.8677C113.696 48.137 114.161 48.3878 114.641 48.62C115.213 48.9218 115.813 49.1865 116.422 49.428ZM109.949 44.8771C109.909 44.7811 109.872 44.6836 109.838 44.5845C109.888 44.6312 109.949 44.6661 110.014 44.6867C109.983 44.7464 109.961 44.8106 109.949 44.8771Z" fill="#999A1C"/>
<path d="M48.2298 67.5759L69.7082 56.1661L56.8184 43.874L48.2298 67.5759Z" fill="#E88831"/>
<path d="M86.4435 40.6141C90.9583 40.6141 94.6182 36.959 94.6182 32.4503C94.6182 27.9416 90.9583 24.2865 86.4435 24.2865C81.9287 24.2865 78.2688 27.9416 78.2688 32.4503C78.2688 36.959 81.9287 40.6141 86.4435 40.6141Z" fill="#7ACC92"/>
<path d="M43.71 51.5316C42.408 50.7886 41.2362 52.7948 42.5382 53.5378C46.579 55.8597 43.3426 60.9121 40.3341 62.361C38.9856 63.0064 40.162 65.0126 41.5059 64.3671C46.2024 62.1055 49.29 54.6755 43.71 51.5316Z" fill="#56403D"/>
<path d="M80.91 45.8523C79.6731 40.0801 71.8936 43.6233 73.2468 48.8568C73.8327 51.123 76.3065 52.4418 78.4455 51.318C79.3806 50.7825 80.1224 49.9657 80.5649 48.9841C81.0075 48.0026 81.1283 46.9065 80.91 45.8523ZM78.6687 47.3012C78.6194 47.7298 78.4628 48.1392 78.2133 48.4914C77.9638 48.8436 77.6295 49.1274 77.2411 49.3166C75.4648 49.9946 75.5067 47.7423 75.9438 46.665C76.725 44.6681 79.05 44.9235 78.6594 47.3197L78.6687 47.3012Z" fill="#56403D"/>
<path d="M77.3109 120.028C77.3585 119.727 77.4792 119.443 77.6624 119.2C77.8457 118.957 78.0858 118.763 78.3618 118.634L81.733 116.693L86.941 113.68L93.1627 110.081L99.7843 106.254L106.187 102.539L111.767 99.3209L115.883 96.9433L118.045 95.6941C118.045 95.7405 118.119 95.7405 118.166 95.7266C118.423 95.6641 118.691 95.6686 118.946 95.7398C119.2 95.811 119.432 95.9464 119.619 96.133C119.806 96.3197 119.941 96.5512 120.013 96.8054C120.084 97.0595 120.088 97.3277 120.026 97.5841C119.775 98.5593 118.942 99.4184 118.166 100.013C115.648 101.818 113.02 103.465 110.298 104.945V103.974C112.13 102.971 116.083 100.723 117.738 99.0051L116.947 99.4695L114.771 100.742L111.493 102.655L107.401 105.042L102.765 107.768L97.9011 110.605L93.0837 113.415L88.6011 116.034L84.7555 118.295L81.7935 120.023C80.8914 120.552 79.9102 121.267 78.8593 121.472C78.661 121.486 78.4619 121.459 78.2745 121.393C78.087 121.326 77.9153 121.222 77.77 121.087C77.6246 120.951 77.5089 120.787 77.4299 120.605C77.3509 120.423 77.3104 120.226 77.3109 120.028Z" fill="#399419"/>
<path style="mix-blend-mode:multiply" d="M103.667 70.5108L96.72 74.6438C96.72 74.6438 101.282 79.009 106.597 81.2426L113.055 77.0307" fill="url(#paint5_linear_3_761)"/>
<path d="M103.002 67.562V70.808L113.041 77.0168L125.094 69.661V66.8933" fill="#E54C3C"/>
<path d="M125.094 66.8933L114.86 60.7774L103.002 67.562L113.237 73.7708L125.094 66.8933Z" fill="#F5604B"/>
<defs>
<linearGradient id="paint0_linear_3_761" x1="75.7624" y1="99.3627" x2="57.8929" y2="113.926" gradientUnits="userSpaceOnUse">
<stop stop-color="#D4A397"/>
<stop offset="1" stop-color="white"/>
</linearGradient>
<linearGradient id="paint1_linear_3_761" x1="69.4152" y1="70.5805" x2="54.2352" y2="82.9528" gradientUnits="userSpaceOnUse">
<stop stop-color="#D4A397"/>
<stop offset="1" stop-color="white"/>
</linearGradient>
<linearGradient id="paint2_linear_3_761" x1="131.07" y1="81.5305" x2="122.005" y2="94.902" gradientUnits="userSpaceOnUse">
<stop offset="0.01" stop-color="#4D4D4D"/>
<stop offset="1" stop-color="white"/>
</linearGradient>
<linearGradient id="paint3_linear_3_761" x1="147.517" y1="79.7148" x2="144.555" y2="84.0837" gradientUnits="userSpaceOnUse">
<stop offset="0.01" stop-color="#4D4D4D"/>
<stop offset="1" stop-color="white"/>
</linearGradient>
<linearGradient id="paint4_linear_3_761" x1="115.106" y1="50.6725" x2="108.601" y2="57.8094" gradientUnits="userSpaceOnUse">
<stop stop-color="#78B46A"/>
<stop offset="0.03" stop-color="#7F3500"/>
<stop offset="1" stop-color="white"/>
</linearGradient>
<linearGradient id="paint5_linear_3_761" x1="111.735" y1="70.2461" x2="102.059" y2="78.1347" gradientUnits="userSpaceOnUse">
<stop stop-color="#D4A397"/>
<stop offset="1" stop-color="white"/>
</linearGradient>
</defs>
</svg>
